<svg xmlns="http://www.w3.org/2000/svg" xmlns:xlink="http://www.w3.org/1999/xlink" width="70" zoomAndPan="magnify" viewBox="0 0 52.5 52.499999" height="70" preserveAspectRatio="xMidYMid meet" version="1.0"><defs><g/><clipPath id="e441fa525a"><path d="M 12.816406 18.652344 L 39.234375 18.652344 L 39.234375 29.367188 L 12.816406 29.367188 Z M 12.816406 18.652344 " clip-rule="nonzero"/></clipPath></defs><g clip-path="url(#e441fa525a)"><path fill="#453421" d="M 25.113281 26.332031 C 25.152344 26.1875 25.21875 26.066406 25.269531 25.9375 C 25.324219 25.804688 25.402344 25.699219 25.46875 25.582031 C 25.058594 25.765625 24.652344 25.894531 24.230469 26.027344 C 24.253906 26.082031 24.296875 26.105469 24.320312 26.148438 C 24.425781 26.238281 24.519531 26.359375 24.597656 26.488281 C 24.652344 26.570312 24.703125 26.648438 24.757812 26.726562 C 24.796875 26.78125 24.808594 26.84375 24.824219 26.910156 C 24.847656 27.042969 24.929688 27.121094 25.058594 27.136719 C 25.125 27.148438 25.179688 27.175781 25.230469 27.199219 C 25.257812 27.214844 25.285156 27.214844 25.269531 27.265625 C 25.140625 27.226562 25.007812 27.214844 24.886719 27.160156 C 24.824219 27.136719 24.78125 27.082031 24.742188 27.03125 C 24.597656 26.84375 24.441406 26.675781 24.296875 26.476562 C 24.28125 26.464844 24.269531 26.4375 24.242188 26.4375 C 24.214844 26.449219 24.230469 26.476562 24.230469 26.503906 C 24.230469 26.59375 24.230469 26.699219 24.230469 26.792969 C 24.230469 26.832031 24.230469 26.886719 24.191406 26.886719 C 24.136719 26.886719 24.148438 26.832031 24.148438 26.792969 C 24.136719 26.648438 24.097656 26.515625 23.992188 26.421875 C 23.941406 26.382812 23.914062 26.316406 23.886719 26.265625 C 23.875 26.226562 23.847656 26.226562 23.820312 26.253906 C 23.78125 26.292969 23.742188 26.34375 23.714844 26.382812 C 23.570312 26.570312 23.425781 26.765625 23.242188 26.925781 C 23.054688 27.082031 22.871094 27.226562 22.675781 27.371094 C 22.542969 27.476562 22.398438 27.570312 22.253906 27.664062 C 22.214844 27.6875 22.160156 27.714844 22.121094 27.742188 C 22.109375 27.753906 22.09375 27.753906 22.082031 27.742188 C 22.082031 27.726562 22.082031 27.714844 22.09375 27.703125 C 22.160156 27.636719 22.226562 27.558594 22.304688 27.492188 C 22.582031 27.253906 22.847656 27.003906 23.082031 26.726562 C 23.203125 26.582031 23.320312 26.421875 23.4375 26.277344 C 23.519531 26.171875 23.597656 26.082031 23.6875 25.976562 C 23.792969 25.855469 23.925781 25.789062 24.070312 25.789062 C 24.402344 25.789062 24.691406 25.6875 25.007812 25.59375 C 25.285156 25.515625 25.535156 25.382812 25.757812 25.210938 C 25.875 25.117188 25.980469 25.011719 26.074219 24.90625 C 26.324219 24.589844 26.628906 24.339844 26.945312 24.089844 C 26.984375 24.066406 27.023438 24.023438 27.0625 23.984375 C 27.128906 23.933594 27.195312 23.917969 27.273438 23.933594 C 27.472656 23.960938 27.667969 24.011719 27.839844 24.117188 C 27.90625 24.15625 27.984375 24.195312 28.0625 24.222656 C 28.273438 24.316406 28.40625 24.472656 28.484375 24.671875 C 28.5 24.695312 28.5 24.738281 28.527344 24.75 C 28.550781 24.738281 28.550781 24.722656 28.550781 24.710938 C 28.589844 24.632812 28.644531 24.550781 28.695312 24.488281 C 28.800781 24.382812 28.882812 24.261719 28.960938 24.144531 C 29 24.078125 29.050781 24.011719 29.105469 23.933594 C 29.171875 23.839844 29.171875 23.828125 29.105469 23.75 C 29.050781 23.667969 28.988281 23.601562 28.90625 23.539062 C 28.761719 23.40625 28.644531 23.246094 28.539062 23.078125 C 28.460938 22.945312 28.460938 22.800781 28.472656 22.65625 C 28.484375 22.523438 28.5 22.390625 28.5 22.257812 C 28.5 22.191406 28.472656 22.140625 28.421875 22.101562 C 28.40625 22.089844 28.378906 22.074219 28.367188 22.0625 C 28.300781 22.023438 28.261719 21.96875 28.234375 21.902344 C 28.167969 21.730469 28.023438 21.625 27.851562 21.535156 C 27.839844 21.652344 27.839844 21.757812 27.878906 21.863281 C 27.90625 21.96875 27.984375 22.035156 28.023438 22.140625 C 27.984375 22.152344 27.972656 22.140625 27.957031 22.128906 C 27.894531 22.0625 27.828125 21.996094 27.773438 21.929688 C 27.722656 21.878906 27.695312 21.8125 27.667969 21.730469 C 27.644531 21.652344 27.617188 21.574219 27.601562 21.496094 C 27.589844 21.414062 27.550781 21.335938 27.511719 21.269531 C 27.457031 21.191406 27.417969 21.113281 27.40625 21.035156 C 27.390625 20.953125 27.351562 20.875 27.3125 20.808594 C 27.285156 20.769531 27.273438 20.742188 27.261719 20.703125 C 27.261719 20.679688 27.246094 20.652344 27.273438 20.636719 C 27.300781 20.625 27.3125 20.652344 27.328125 20.652344 C 27.445312 20.742188 27.578125 20.824219 27.683594 20.96875 C 27.707031 20.863281 27.683594 20.769531 27.65625 20.679688 C 27.628906 20.613281 27.578125 20.546875 27.523438 20.492188 C 27.417969 20.386719 27.328125 20.269531 27.207031 20.164062 C 27.089844 20.046875 26.984375 19.914062 26.917969 19.753906 C 26.917969 19.742188 26.90625 19.730469 26.890625 19.714844 C 26.878906 19.808594 26.851562 19.898438 26.824219 19.980469 C 26.824219 19.992188 26.824219 20.003906 26.8125 20.019531 C 26.800781 20.03125 26.785156 20.03125 26.773438 20.019531 C 26.757812 20.003906 26.757812 19.980469 26.757812 19.953125 C 26.773438 19.847656 26.746094 19.753906 26.71875 19.648438 C 26.695312 19.492188 26.695312 19.332031 26.71875 19.175781 C 26.734375 19.109375 26.757812 19.058594 26.785156 19.003906 C 26.746094 18.992188 26.734375 19.015625 26.707031 19.03125 C 26.546875 19.136719 26.390625 19.226562 26.234375 19.332031 C 26.085938 19.4375 25.929688 19.492188 25.757812 19.519531 C 25.746094 19.519531 25.71875 19.519531 25.707031 19.53125 C 25.691406 19.558594 25.71875 19.570312 25.730469 19.585938 C 25.785156 19.648438 25.835938 19.714844 25.863281 19.792969 C 25.902344 19.914062 25.96875 19.992188 26.046875 20.070312 C 26.074219 20.097656 26.085938 20.109375 26.113281 20.136719 C 26.128906 20.152344 26.128906 20.164062 26.113281 20.175781 C 26.101562 20.191406 26.085938 20.191406 26.074219 20.175781 C 25.996094 20.097656 25.875 20.046875 25.8125 19.941406 C 25.746094 19.847656 25.664062 19.78125 25.574219 19.730469 C 25.480469 19.675781 25.390625 19.625 25.324219 19.542969 C 25.296875 19.503906 25.257812 19.503906 25.21875 19.519531 C 25.164062 19.53125 25.097656 19.542969 25.046875 19.570312 C 24.953125 19.625 24.847656 19.664062 24.757812 19.714844 C 24.703125 19.742188 24.664062 19.769531 24.625 19.820312 C 24.558594 19.898438 24.492188 19.980469 24.425781 20.085938 C 24.480469 20.085938 24.507812 20.058594 24.546875 20.046875 C 24.664062 19.992188 24.78125 19.953125 24.929688 19.964844 C 25.035156 19.964844 25.097656 19.914062 25.179688 19.859375 C 25.191406 19.835938 25.21875 19.78125 25.246094 19.808594 C 25.269531 19.835938 25.230469 19.859375 25.203125 19.886719 C 25.113281 20.019531 24.980469 20.097656 24.824219 20.136719 C 24.585938 20.191406 24.386719 20.320312 24.203125 20.492188 C 24.046875 20.636719 23.875 20.769531 23.714844 20.902344 C 23.558594 21.019531 23.4375 21.179688 23.308594 21.335938 C 23.265625 21.375 23.253906 21.429688 23.242188 21.480469 C 23.226562 21.652344 23.109375 21.785156 22.976562 21.902344 C 22.9375 21.929688 22.910156 21.957031 22.859375 22.007812 C 22.992188 21.96875 23.082031 21.917969 23.175781 21.851562 C 23.332031 21.757812 23.503906 21.667969 23.648438 21.535156 C 23.664062 21.519531 23.6875 21.507812 23.703125 21.496094 C 23.808594 21.441406 23.898438 21.375 23.964844 21.285156 C 23.992188 21.324219 23.980469 21.335938 23.964844 21.351562 C 23.792969 21.546875 23.625 21.746094 23.386719 21.890625 C 23.070312 22.074219 22.753906 22.257812 22.464844 22.484375 C 22.304688 22.601562 22.132812 22.707031 21.960938 22.8125 C 21.816406 22.90625 21.6875 23.023438 21.582031 23.15625 C 21.289062 23.523438 21.09375 23.933594 20.910156 24.367188 C 20.882812 24.421875 20.882812 24.472656 20.828125 24.511719 C 20.804688 24.488281 20.816406 24.460938 20.828125 24.433594 C 20.910156 24.234375 20.949219 24.023438 21.039062 23.8125 C 21.078125 23.734375 21.105469 23.644531 21.144531 23.5625 C 21.210938 23.433594 21.277344 23.289062 21.316406 23.140625 C 21.34375 23.050781 21.382812 22.957031 21.421875 22.851562 C 21.304688 22.917969 21.199219 22.996094 21.105469 23.101562 C 20.933594 23.300781 20.804688 23.511719 20.671875 23.734375 C 20.605469 23.855469 20.527344 23.972656 20.460938 24.089844 C 20.40625 24.183594 20.367188 24.277344 20.367188 24.382812 C 20.367188 24.472656 20.34375 24.550781 20.289062 24.632812 C 20.222656 24.738281 20.171875 24.84375 20.117188 24.949219 C 20.117188 24.960938 20.105469 24.972656 20.089844 24.988281 C 20.089844 25 20.078125 25 20.066406 25 C 20.066406 25 20.050781 24.988281 20.050781 24.972656 C 20.050781 24.949219 20.066406 24.921875 20.066406 24.894531 C 20.105469 24.816406 20.132812 24.738281 20.171875 24.671875 C 20.238281 24.550781 20.238281 24.421875 20.222656 24.289062 C 20.195312 24.289062 20.195312 24.300781 20.183594 24.316406 C 20.027344 24.566406 19.816406 24.777344 19.589844 24.960938 C 19.550781 25 19.511719 25.027344 19.484375 25.078125 C 19.40625 25.222656 19.3125 25.382812 19.234375 25.527344 C 19.15625 25.710938 19.039062 25.882812 18.957031 26.066406 C 18.90625 26.171875 18.878906 26.292969 18.867188 26.410156 C 18.839844 26.621094 18.722656 26.804688 18.574219 26.949219 C 18.574219 26.949219 18.5625 26.964844 18.550781 26.964844 C 18.523438 26.949219 18.550781 26.925781 18.550781 26.910156 C 18.589844 26.832031 18.628906 26.753906 18.667969 26.675781 C 18.707031 26.59375 18.734375 26.503906 18.722656 26.410156 C 18.695312 26.253906 18.707031 26.09375 18.734375 25.9375 C 18.734375 25.921875 18.734375 25.921875 18.734375 25.910156 C 18.695312 25.910156 18.679688 25.949219 18.667969 25.960938 C 18.496094 26.171875 18.300781 26.359375 18.074219 26.515625 C 17.996094 26.582031 17.917969 26.648438 17.839844 26.726562 C 17.734375 26.832031 17.613281 26.9375 17.496094 27.03125 C 17.363281 27.148438 17.207031 27.242188 17.058594 27.332031 C 16.902344 27.425781 16.757812 27.53125 16.640625 27.675781 C 16.625 27.6875 16.613281 27.714844 16.597656 27.703125 C 16.585938 27.6875 16.585938 27.675781 16.585938 27.648438 C 16.597656 27.597656 16.625 27.558594 16.652344 27.515625 C 16.71875 27.425781 16.785156 27.359375 16.863281 27.28125 C 16.941406 27.199219 17.007812 27.136719 17.085938 27.070312 C 17.125 27.03125 17.152344 26.988281 17.191406 26.949219 C 17.324219 26.753906 17.441406 26.570312 17.601562 26.398438 C 17.628906 26.371094 17.640625 26.34375 17.667969 26.316406 C 17.863281 26.132812 18.007812 25.910156 18.195312 25.710938 C 18.257812 25.632812 18.285156 25.527344 18.285156 25.421875 C 18.285156 25.328125 18.246094 25.25 18.167969 25.183594 C 18.140625 25.160156 18.113281 25.160156 18.089844 25.199219 C 18.074219 25.210938 18.0625 25.238281 18.050781 25.25 C 17.945312 25.394531 17.824219 25.515625 17.667969 25.605469 C 17.601562 25.644531 17.546875 25.710938 17.480469 25.75 C 17.457031 25.777344 17.429688 25.804688 17.390625 25.804688 C 17.363281 25.777344 17.390625 25.765625 17.390625 25.75 C 17.429688 25.6875 17.46875 25.632812 17.535156 25.582031 C 17.628906 25.5 17.679688 25.410156 17.707031 25.304688 C 17.734375 25.210938 17.773438 25.132812 17.824219 25.054688 C 17.863281 24.988281 17.917969 24.921875 17.984375 24.882812 C 18.050781 24.84375 18.101562 24.777344 18.128906 24.695312 C 18.207031 24.488281 18.300781 24.289062 18.417969 24.089844 C 18.496094 23.945312 18.496094 23.800781 18.417969 23.667969 C 18.339844 23.523438 18.246094 23.367188 18.140625 23.207031 C 18.113281 23.289062 18.101562 23.351562 18.089844 23.417969 C 18.089844 23.445312 18.074219 23.472656 18.074219 23.496094 C 18.074219 23.707031 17.96875 23.878906 17.917969 24.078125 C 17.902344 24.117188 17.878906 24.15625 17.851562 24.183594 C 17.757812 24.261719 17.652344 24.328125 17.5625 24.394531 C 17.523438 24.367188 17.535156 24.355469 17.546875 24.339844 C 17.5625 24.316406 17.574219 24.277344 17.613281 24.261719 C 17.746094 24.183594 17.773438 24.050781 17.785156 23.90625 C 17.785156 23.855469 17.796875 23.800781 17.8125 23.75 C 17.824219 23.683594 17.851562 23.628906 17.890625 23.578125 C 17.957031 23.496094 17.984375 23.417969 17.957031 23.328125 C 17.929688 23.207031 17.902344 23.078125 17.917969 22.929688 C 17.851562 22.972656 17.796875 22.996094 17.746094 23.023438 C 17.691406 23.050781 17.640625 23.089844 17.585938 23.117188 C 17.523438 23.15625 17.457031 23.167969 17.375 23.15625 C 17.269531 23.140625 17.191406 23.183594 17.125 23.261719 C 17.019531 23.378906 16.902344 23.472656 16.785156 23.5625 C 16.757812 23.578125 16.746094 23.589844 16.730469 23.617188 C 16.558594 23.839844 16.363281 24.050781 16.230469 24.316406 C 16.136719 24.5 16.019531 24.65625 15.914062 24.828125 C 15.875 24.894531 15.820312 24.960938 15.769531 25.039062 C 15.714844 25.117188 15.652344 25.199219 15.585938 25.277344 C 15.519531 25.34375 15.519531 25.34375 15.585938 25.394531 C 15.652344 25.460938 15.714844 25.527344 15.769531 25.605469 C 15.808594 25.671875 15.835938 25.726562 15.835938 25.804688 C 15.835938 25.960938 15.914062 26.066406 16.070312 26.105469 C 16.097656 26.121094 16.136719 26.121094 16.175781 26.132812 C 16.257812 26.160156 16.296875 26.199219 16.335938 26.265625 C 16.347656 26.277344 16.347656 26.304688 16.335938 26.332031 C 16.324219 26.34375 16.296875 26.359375 16.28125 26.34375 C 16.203125 26.292969 16.097656 26.292969 16.007812 26.265625 C 15.847656 26.210938 15.742188 26.09375 15.714844 25.9375 C 15.691406 25.804688 15.636719 25.726562 15.519531 25.671875 C 15.441406 25.632812 15.398438 25.566406 15.335938 25.515625 C 15.308594 25.476562 15.269531 25.449219 15.230469 25.421875 C 15.1875 25.394531 15.164062 25.394531 15.136719 25.433594 C 15.125 25.449219 15.109375 25.460938 15.097656 25.476562 C 15.003906 25.621094 14.886719 25.75 14.820312 25.910156 C 14.78125 26 14.714844 26.082031 14.648438 26.148438 C 14.609375 26.171875 14.597656 26.199219 14.636719 26.238281 C 14.675781 26.277344 14.703125 26.332031 14.726562 26.382812 C 14.753906 26.4375 14.78125 26.476562 14.792969 26.527344 C 14.808594 26.554688 14.847656 26.59375 14.808594 26.609375 C 14.765625 26.632812 14.753906 26.582031 14.742188 26.570312 C 14.703125 26.527344 14.675781 26.488281 14.648438 26.4375 C 14.609375 26.371094 14.554688 26.332031 14.476562 26.332031 C 14.398438 26.316406 14.320312 26.292969 14.253906 26.238281 C 14.121094 26.132812 14.109375 26.132812 14.003906 26.265625 C 13.9375 26.34375 13.859375 26.4375 13.792969 26.515625 C 13.699219 26.621094 13.648438 26.726562 13.609375 26.859375 C 13.582031 26.925781 13.554688 26.988281 13.515625 27.042969 C 13.476562 27.109375 13.449219 27.175781 13.4375 27.253906 C 13.421875 27.304688 13.410156 27.359375 13.398438 27.410156 C 13.382812 27.453125 13.371094 27.476562 13.34375 27.503906 C 13.332031 27.515625 13.316406 27.542969 13.292969 27.515625 C 13.277344 27.503906 13.277344 27.476562 13.292969 27.464844 C 13.382812 27.332031 13.355469 27.214844 13.355469 27.082031 C 13.316406 27.09375 13.304688 27.136719 13.277344 27.160156 C 13.160156 27.320312 13.054688 27.464844 12.921875 27.609375 C 12.910156 27.636719 12.882812 27.675781 12.855469 27.648438 C 12.816406 27.621094 12.855469 27.582031 12.871094 27.558594 C 13.09375 27.214844 13.304688 26.871094 13.582031 26.554688 C 13.671875 26.449219 13.765625 26.332031 13.832031 26.199219 C 13.871094 26.132812 13.925781 26.054688 13.976562 25.988281 C 14.042969 25.894531 14.121094 25.882812 14.226562 25.910156 C 14.292969 25.9375 14.359375 25.9375 14.425781 25.9375 C 14.542969 25.9375 14.636719 25.894531 14.703125 25.789062 C 14.742188 25.738281 14.78125 25.6875 14.820312 25.621094 C 14.898438 25.476562 15.003906 25.34375 15.082031 25.199219 C 15.125 25.144531 15.164062 25.117188 15.230469 25.132812 C 15.253906 25.132812 15.28125 25.144531 15.292969 25.144531 C 15.347656 25.160156 15.375 25.144531 15.398438 25.105469 C 15.546875 24.894531 15.691406 24.683594 15.820312 24.472656 C 15.886719 24.367188 15.964844 24.261719 16.058594 24.183594 C 16.125 24.117188 16.191406 24.050781 16.242188 23.972656 C 16.257812 23.945312 16.28125 23.917969 16.296875 23.894531 C 16.414062 23.75 16.535156 23.617188 16.613281 23.445312 C 16.652344 23.339844 16.730469 23.261719 16.808594 23.183594 C 16.851562 23.140625 16.875 23.101562 16.914062 23.078125 C 17.007812 22.996094 17.113281 22.972656 17.230469 23.011719 C 17.351562 23.0625 17.441406 23.035156 17.546875 22.972656 C 17.667969 22.90625 17.757812 22.824219 17.824219 22.71875 C 17.878906 22.640625 17.957031 22.589844 18.023438 22.507812 C 18.050781 22.484375 18.089844 22.46875 18.113281 22.457031 C 18.207031 22.445312 18.285156 22.445312 18.378906 22.429688 C 18.46875 22.429688 18.5625 22.457031 18.628906 22.523438 C 18.773438 22.667969 18.945312 22.746094 19.128906 22.800781 C 19.394531 22.878906 19.550781 23.050781 19.605469 23.3125 C 19.605469 23.339844 19.617188 23.351562 19.617188 23.378906 C 19.65625 23.496094 19.722656 23.601562 19.839844 23.667969 C 19.921875 23.707031 19.984375 23.761719 20.066406 23.800781 C 20.132812 23.839844 20.132812 23.839844 20.195312 23.789062 C 20.328125 23.65625 20.449219 23.496094 20.539062 23.328125 C 20.761719 22.90625 21.09375 22.589844 21.515625 22.378906 C 21.660156 22.296875 21.816406 22.246094 21.988281 22.207031 C 22.226562 22.140625 22.4375 22.035156 22.636719 21.878906 C 22.742188 21.785156 22.859375 21.707031 22.964844 21.601562 C 23.03125 21.535156 23.082031 21.457031 23.109375 21.363281 C 23.148438 21.246094 23.214844 21.140625 23.292969 21.046875 C 23.414062 20.914062 23.542969 20.785156 23.664062 20.652344 C 23.886719 20.414062 24.109375 20.191406 24.296875 19.941406 C 24.347656 19.859375 24.414062 19.78125 24.464844 19.703125 C 24.53125 19.609375 24.625 19.53125 24.730469 19.480469 C 24.808594 19.4375 24.886719 19.398438 24.96875 19.359375 C 25.097656 19.292969 25.230469 19.269531 25.375 19.269531 C 25.519531 19.269531 25.652344 19.269531 25.785156 19.253906 C 25.917969 19.226562 26.046875 19.1875 26.167969 19.121094 C 26.402344 18.992188 26.628906 18.859375 26.863281 18.714844 C 26.945312 18.660156 26.957031 18.660156 27.011719 18.742188 C 27.179688 18.964844 27.328125 19.1875 27.484375 19.414062 C 27.539062 19.503906 27.601562 19.585938 27.683594 19.664062 C 27.75 19.730469 27.828125 19.792969 27.933594 19.808594 C 28.089844 19.835938 28.167969 19.953125 28.210938 20.085938 C 28.222656 20.109375 28.234375 20.152344 28.234375 20.175781 C 28.261719 20.308594 28.316406 20.425781 28.394531 20.53125 C 28.5 20.679688 28.605469 20.824219 28.710938 20.96875 C 28.722656 20.980469 28.738281 21.007812 28.75 21.019531 C 28.84375 21.152344 28.960938 21.230469 29.117188 21.257812 C 29.183594 21.269531 29.210938 21.296875 29.25 21.351562 C 29.328125 21.46875 29.394531 21.585938 29.449219 21.71875 C 29.539062 21.941406 29.671875 22.140625 29.832031 22.324219 C 29.894531 22.402344 29.976562 22.46875 30.054688 22.535156 C 30.132812 22.601562 30.210938 22.667969 30.277344 22.746094 C 30.34375 22.824219 30.421875 22.878906 30.460938 22.972656 C 30.503906 23.035156 30.582031 23.050781 30.648438 23.023438 C 30.699219 22.996094 30.765625 22.972656 30.804688 22.917969 C 30.898438 22.800781 31.015625 22.707031 31.121094 22.601562 C 31.214844 22.523438 31.292969 22.429688 31.371094 22.351562 C 31.476562 22.234375 31.609375 22.191406 31.765625 22.207031 C 31.820312 22.207031 31.859375 22.207031 31.898438 22.167969 C 32.082031 22.035156 32.253906 21.902344 32.414062 21.730469 C 32.480469 21.667969 32.53125 21.585938 32.585938 21.507812 C 32.675781 21.390625 32.769531 21.269531 32.859375 21.140625 C 32.992188 20.96875 33.175781 20.914062 33.375 20.914062 C 33.46875 20.914062 33.535156 20.953125 33.574219 21.035156 C 33.652344 21.179688 33.742188 21.296875 33.835938 21.429688 C 33.875 21.496094 33.929688 21.546875 33.996094 21.601562 C 34.035156 21.625 34.058594 21.652344 34.085938 21.691406 C 34.21875 21.851562 34.363281 21.984375 34.496094 22.140625 C 34.546875 22.207031 34.613281 22.257812 34.667969 22.3125 C 34.890625 22.496094 35.035156 22.746094 35.152344 23.011719 C 35.207031 23.140625 35.21875 23.273438 35.21875 23.40625 C 35.21875 23.472656 35.21875 23.523438 35.21875 23.589844 C 35.21875 23.734375 35.246094 23.867188 35.300781 24 C 35.417969 24.277344 35.550781 24.550781 35.722656 24.800781 C 35.8125 24.933594 35.917969 25.011719 36.0625 25.078125 C 36.261719 25.160156 36.445312 25.277344 36.644531 25.382812 C 36.695312 25.410156 36.722656 25.449219 36.761719 25.476562 C 36.921875 25.632812 37.066406 25.816406 37.171875 26.027344 C 37.210938 26.09375 37.25 26.160156 37.289062 26.226562 C 37.367188 26.371094 37.472656 26.503906 37.550781 26.648438 C 37.605469 26.765625 37.710938 26.84375 37.804688 26.925781 C 37.910156 27.003906 38.015625 27.09375 38.121094 27.1875 C 38.199219 27.253906 38.25 27.332031 38.265625 27.4375 C 38.277344 27.53125 38.316406 27.597656 38.382812 27.664062 C 38.410156 27.6875 38.4375 27.742188 38.460938 27.78125 C 38.554688 27.964844 38.671875 28.125 38.816406 28.269531 C 38.976562 28.425781 39.066406 28.609375 39.171875 28.808594 C 39.171875 28.820312 39.1875 28.835938 39.171875 28.847656 C 39.160156 28.863281 39.148438 28.863281 39.132812 28.847656 C 39.109375 28.835938 39.09375 28.796875 39.082031 28.769531 C 39.015625 28.609375 38.898438 28.480469 38.75 28.375 C 38.644531 28.292969 38.554688 28.203125 38.460938 28.109375 C 38.449219 28.097656 38.4375 28.085938 38.410156 28.070312 C 38.382812 28.097656 38.394531 28.109375 38.410156 28.136719 C 38.4375 28.1875 38.449219 28.242188 38.476562 28.292969 C 38.488281 28.320312 38.5 28.359375 38.515625 28.386719 C 38.527344 28.425781 38.515625 28.453125 38.488281 28.480469 C 38.449219 28.503906 38.421875 28.492188 38.382812 28.480469 C 38.355469 28.464844 38.34375 28.453125 38.332031 28.425781 C 38.183594 28.28125 38.039062 28.136719 37.882812 28.003906 C 37.75 27.898438 37.65625 27.769531 37.550781 27.636719 C 37.460938 27.53125 37.367188 27.425781 37.277344 27.332031 C 37.171875 27.226562 37.066406 27.121094 36.972656 27.015625 C 36.839844 26.859375 36.683594 26.738281 36.523438 26.621094 C 36.394531 26.527344 36.246094 26.476562 36.089844 26.488281 C 36.039062 26.488281 36.023438 26.503906 36.050781 26.542969 C 36.089844 26.632812 36.128906 26.726562 36.15625 26.832031 C 36.195312 26.9375 36.261719 27.015625 36.339844 27.082031 C 36.605469 27.347656 36.800781 27.664062 37.039062 27.953125 C 37.050781 27.964844 37.050781 27.980469 37.066406 27.992188 C 37.066406 28.003906 37.066406 28.019531 37.050781 28.03125 C 37.039062 28.042969 37.027344 28.042969 37.011719 28.042969 C 36.972656 28.03125 36.960938 27.992188 36.933594 27.964844 C 36.800781 27.808594 36.667969 27.648438 36.539062 27.492188 C 36.417969 27.347656 36.289062 27.226562 36.15625 27.09375 C 36.0625 27.015625 35.984375 26.9375 35.917969 26.832031 C 35.734375 26.527344 35.46875 26.277344 35.207031 26.042969 C 34.984375 25.84375 34.8125 25.59375 34.667969 25.34375 C 34.667969 25.34375 34.667969 25.34375 34.667969 25.328125 C 34.652344 25.289062 34.628906 25.25 34.667969 25.222656 C 34.707031 25.199219 34.734375 25.25 34.757812 25.277344 C 34.890625 25.421875 35.007812 25.566406 35.152344 25.6875 C 35.207031 25.738281 35.273438 25.777344 35.339844 25.816406 C 35.339844 25.777344 35.324219 25.75 35.3125 25.738281 C 35.167969 25.539062 35.035156 25.328125 34.890625 25.117188 C 34.757812 24.921875 34.601562 24.738281 34.457031 24.550781 C 34.429688 24.527344 34.417969 24.511719 34.375 24.550781 C 34.324219 24.617188 34.257812 24.671875 34.191406 24.722656 C 34.125 24.777344 34.058594 24.84375 34.019531 24.921875 C 33.96875 25.027344 33.914062 25.132812 33.875 25.25 C 33.863281 25.289062 33.847656 25.328125 33.824219 25.355469 C 33.796875 25.328125 33.808594 25.304688 33.808594 25.277344 C 33.824219 25.222656 33.847656 25.171875 33.863281 25.117188 C 33.902344 25.039062 33.929688 24.960938 33.941406 24.867188 C 33.953125 24.761719 33.996094 24.671875 34.058594 24.589844 C 34.152344 24.460938 34.230469 24.316406 34.285156 24.15625 C 34.324219 24.050781 34.351562 23.945312 34.375 23.839844 C 34.390625 23.789062 34.375 23.75 34.335938 23.707031 C 34.152344 23.539062 33.996094 23.339844 33.824219 23.15625 C 33.742188 23.078125 33.652344 23.023438 33.558594 22.957031 C 33.441406 22.867188 33.324219 22.785156 33.191406 22.71875 C 33.125 22.695312 33.125 22.695312 33.097656 22.761719 C 33.046875 22.890625 33.019531 23.035156 32.992188 23.183594 C 32.980469 23.3125 32.925781 23.445312 32.925781 23.578125 C 32.925781 23.589844 32.914062 23.589844 32.914062 23.601562 C 32.902344 23.617188 32.886719 23.601562 32.886719 23.589844 C 32.859375 23.5625 32.859375 23.523438 32.859375 23.496094 C 32.859375 23.378906 32.835938 23.261719 32.835938 23.140625 C 32.820312 22.945312 32.820312 22.746094 32.914062 22.574219 C 32.925781 22.550781 32.941406 22.523438 32.941406 22.496094 C 32.941406 22.339844 32.980469 22.191406 33.03125 22.046875 C 33.046875 21.996094 33.070312 21.929688 33.085938 21.878906 C 33.125 21.773438 33.097656 21.691406 33.03125 21.613281 C 33.007812 21.574219 32.980469 21.507812 32.941406 21.507812 C 32.886719 21.496094 32.875 21.5625 32.835938 21.601562 C 32.648438 21.785156 32.453125 21.957031 32.253906 22.128906 C 32.175781 22.191406 32.097656 22.273438 32.03125 22.351562 C 31.953125 22.457031 31.871094 22.550781 31.78125 22.640625 C 31.753906 22.667969 31.726562 22.695312 31.703125 22.734375 C 31.636719 22.839844 31.570312 22.945312 31.503906 23.050781 C 31.464844 23.117188 31.4375 23.183594 31.410156 23.246094 C 31.386719 23.351562 31.320312 23.433594 31.226562 23.496094 C 31.09375 23.601562 30.964844 23.707031 30.832031 23.8125 C 30.738281 23.894531 30.648438 23.984375 30.632812 24.117188 C 30.632812 24.128906 30.621094 24.15625 30.59375 24.144531 C 30.566406 24.144531 30.566406 24.117188 30.566406 24.105469 C 30.566406 24.050781 30.59375 24.011719 30.621094 23.972656 C 30.699219 23.839844 30.804688 23.722656 30.910156 23.601562 C 30.925781 23.589844 30.949219 23.5625 30.964844 23.550781 C 31.09375 23.433594 31.199219 23.300781 31.265625 23.140625 C 31.34375 22.957031 31.492188 22.8125 31.609375 22.65625 C 31.621094 22.640625 31.636719 22.628906 31.636719 22.613281 C 31.609375 22.613281 31.582031 22.640625 31.570312 22.65625 C 31.476562 22.707031 31.386719 22.761719 31.292969 22.824219 C 31.175781 22.890625 31.054688 22.972656 30.964844 23.078125 C 30.949219 23.101562 30.925781 23.117188 30.898438 23.128906 C 30.6875 23.289062 30.554688 23.496094 30.421875 23.707031 C 30.34375 23.839844 30.25 23.972656 30.160156 24.105469 C 30.015625 24.300781 29.894531 24.527344 29.789062 24.75 C 29.738281 24.867188 29.660156 24.960938 29.554688 25.039062 C 29.527344 25.054688 29.5 25.105469 29.460938 25.066406 C 29.421875 25.027344 29.472656 25 29.5 24.972656 C 29.621094 24.882812 29.671875 24.761719 29.710938 24.632812 C 29.726562 24.550781 29.75 24.472656 29.777344 24.394531 C 29.765625 24.382812 29.765625 24.382812 29.75 24.382812 C 29.515625 24.511719 29.261719 24.644531 29.027344 24.800781 C 28.972656 24.84375 28.933594 24.882812 28.90625 24.949219 C 28.894531 24.988281 28.867188 25.027344 28.855469 25.078125 C 28.816406 25.160156 28.816406 25.160156 28.882812 25.210938 C 28.960938 25.304688 29.050781 25.394531 29.132812 25.488281 C 29.25 25.605469 29.355469 25.738281 29.460938 25.855469 C 29.515625 25.921875 29.59375 25.976562 29.660156 26.042969 C 29.855469 26.226562 30.082031 26.398438 30.238281 26.621094 C 30.316406 26.726562 30.421875 26.804688 30.515625 26.886719 C 30.566406 26.925781 30.632812 26.964844 30.699219 26.976562 C 30.882812 27.03125 31.03125 27.136719 31.136719 27.292969 C 31.242188 27.4375 31.332031 27.570312 31.425781 27.714844 C 31.53125 27.875 31.636719 28.003906 31.808594 28.097656 C 31.820312 28.109375 31.832031 28.109375 31.832031 28.136719 C 31.792969 28.148438 31.765625 28.125 31.742188 28.109375 C 31.675781 28.070312 31.609375 28.03125 31.554688 27.980469 C 31.332031 27.78125 31.109375 27.582031 30.871094 27.371094 C 30.820312 27.320312 30.753906 27.28125 30.6875 27.242188 C 30.554688 27.160156 30.4375 27.082031 30.332031 26.988281 C 30.316406 26.976562 30.316406 26.976562 30.304688 26.976562 C 30.292969 27.003906 30.304688 27.015625 30.316406 27.03125 C 30.382812 27.160156 30.449219 27.292969 30.488281 27.4375 C 30.542969 27.597656 30.632812 27.714844 30.765625 27.820312 C 30.9375 27.964844 31.121094 28.097656 31.304688 28.230469 C 31.492188 28.347656 31.648438 28.492188 31.792969 28.664062 C 31.953125 28.847656 32.125 29.007812 32.335938 29.125 C 32.347656 29.136719 32.375 29.152344 32.386719 29.164062 C 32.425781 29.191406 32.441406 29.230469 32.425781 29.269531 C 32.414062 29.308594 32.375 29.324219 32.335938 29.324219 C 32.292969 29.324219 32.253906 29.296875 32.214844 29.285156 C 32.042969 29.203125 31.898438 29.097656 31.753906 28.980469 C 31.648438 28.875 31.53125 28.769531 31.425781 28.664062 C 31.386719 28.625 31.332031 28.585938 31.265625 28.570312 C 31.054688 28.53125 30.882812 28.425781 30.738281 28.28125 C 30.566406 28.097656 30.34375 27.964844 30.144531 27.832031 C 30.066406 27.78125 30 27.742188 29.921875 27.703125 C 29.921875 27.703125 29.910156 27.714844 29.910156 27.714844 C 29.9375 27.78125 29.976562 27.847656 30 27.898438 C 30.105469 28.070312 30.199219 28.253906 30.265625 28.453125 C 30.277344 28.503906 30.304688 28.546875 30.332031 28.597656 C 30.34375 28.609375 30.34375 28.625 30.332031 28.636719 C 30.316406 28.652344 30.292969 28.636719 30.277344 28.625 C 30.25 28.597656 30.238281 28.570312 30.226562 28.546875 C 30.199219 28.480469 30.171875 28.398438 30.144531 28.335938 C 30.09375 28.203125 30.027344 28.085938 29.9375 27.980469 C 29.855469 27.875 29.777344 27.769531 29.710938 27.648438 C 29.632812 27.503906 29.527344 27.386719 29.410156 27.28125 C 29.367188 27.253906 29.328125 27.214844 29.277344 27.175781 C 29.277344 27.347656 29.316406 27.492188 29.34375 27.636719 C 29.304688 27.636719 29.289062 27.609375 29.289062 27.597656 C 29.277344 27.542969 29.261719 27.476562 29.25 27.425781 C 29.222656 27.28125 29.15625 27.148438 29.039062 27.054688 C 29 27.03125 28.960938 26.988281 28.933594 26.964844 C 28.855469 26.886719 28.777344 26.804688 28.722656 26.714844 C 28.683594 26.632812 28.632812 26.570312 28.578125 26.515625 C 28.484375 26.421875 28.40625 26.332031 28.339844 26.226562 C 28.339844 26.210938 28.328125 26.199219 28.316406 26.199219 C 28.300781 26.199219 28.300781 26.210938 28.300781 26.226562 C 28.289062 26.410156 28.273438 26.582031 28.289062 26.765625 C 28.300781 26.964844 28.289062 27.160156 28.261719 27.359375 C 28.261719 27.371094 28.261719 27.371094 28.261719 27.386719 C 28.25 27.410156 28.261719 27.453125 28.222656 27.453125 C 28.195312 27.453125 28.195312 27.410156 28.195312 27.386719 C 28.195312 27.359375 28.195312 27.332031 28.195312 27.304688 C 28.222656 26.964844 28.195312 26.632812 28.15625 26.292969 C 28.144531 26.09375 28.117188 25.894531 28.0625 25.699219 C 28.023438 25.554688 27.957031 25.421875 27.867188 25.304688 C 27.8125 25.222656 27.746094 25.160156 27.722656 25.066406 C 27.644531 24.894531 27.523438 24.777344 27.433594 24.617188 C 27.433594 24.605469 27.417969 24.605469 27.40625 24.589844 C 27.339844 24.75 27.246094 24.882812 27.207031 25.054688 C 27.167969 25.238281 27.089844 25.410156 26.996094 25.582031 C 26.929688 25.699219 26.824219 25.804688 26.71875 25.894531 C 26.5625 26.027344 26.429688 26.1875 26.3125 26.359375 C 26.285156 26.382812 26.273438 26.421875 26.246094 26.4375 C 26.21875 26.421875 26.234375 26.410156 26.246094 26.398438 C 26.3125 26.253906 26.402344 26.121094 26.507812 26.015625 C 26.613281 25.910156 26.71875 25.816406 26.8125 25.699219 C 26.863281 25.632812 26.90625 25.566406 26.929688 25.488281 C 26.984375 25.328125 27.023438 25.183594 27.035156 25.011719 C 27.050781 24.867188 27.089844 24.722656 27.128906 24.589844 C 27.167969 24.460938 27.167969 24.316406 27.128906 24.183594 C 27.101562 24.117188 27.089844 24.117188 27.050781 24.15625 C 26.929688 24.300781 26.785156 24.40625 26.640625 24.527344 C 26.535156 24.605469 26.457031 24.695312 26.378906 24.816406 C 26.234375 25.027344 26.0625 25.222656 25.863281 25.382812 C 25.585938 25.605469 25.375 25.882812 25.21875 26.1875 C 25.179688 26.292969 25.179688 26.316406 25.113281 26.332031 Z M 25.113281 26.332031 " fill-opacity="1" fill-rule="nonzero"/></g><path fill="#453421" d="M 26.878906 20.730469 C 26.96875 20.808594 27.011719 20.902344 26.957031 21.019531 C 26.945312 21.058594 26.945312 21.097656 26.929688 21.140625 C 26.890625 21.21875 26.90625 21.296875 26.929688 21.375 C 26.96875 21.535156 27.050781 21.667969 27.167969 21.773438 C 27.195312 21.796875 27.222656 21.824219 27.246094 21.851562 C 27.351562 22.007812 27.496094 22.089844 27.667969 22.167969 C 27.8125 22.234375 27.867188 22.324219 27.851562 22.484375 C 27.851562 22.535156 27.839844 22.589844 27.839844 22.65625 C 27.851562 22.800781 27.851562 22.945312 27.972656 23.0625 C 27.984375 23.078125 28 23.089844 27.984375 23.101562 C 27.972656 23.128906 27.945312 23.101562 27.933594 23.101562 C 27.867188 23.050781 27.8125 22.984375 27.773438 22.90625 C 27.734375 22.800781 27.695312 22.707031 27.644531 22.601562 C 27.617188 22.550781 27.589844 22.507812 27.550781 22.484375 C 27.484375 22.445312 27.445312 22.378906 27.378906 22.324219 C 27.351562 22.351562 27.367188 22.378906 27.367188 22.402344 C 27.390625 22.5625 27.390625 22.734375 27.351562 22.890625 C 27.328125 23.035156 27.3125 23.183594 27.351562 23.328125 C 27.367188 23.367188 27.367188 23.40625 27.351562 23.433594 C 27.351562 23.445312 27.339844 23.472656 27.3125 23.472656 C 27.285156 23.472656 27.273438 23.472656 27.261719 23.445312 C 27.246094 23.417969 27.234375 23.40625 27.234375 23.378906 C 27.179688 23.195312 27.140625 23.011719 27.179688 22.824219 C 27.207031 22.640625 27.195312 22.457031 27.140625 22.285156 C 27.117188 22.191406 27.089844 22.113281 27.050781 22.035156 C 27.023438 21.957031 26.96875 21.890625 26.90625 21.835938 C 26.757812 21.71875 26.71875 21.5625 26.707031 21.390625 C 26.707031 21.324219 26.71875 21.257812 26.757812 21.191406 C 26.839844 21.074219 26.878906 20.941406 26.839844 20.808594 C 26.839844 20.796875 26.839844 20.785156 26.839844 20.769531 C 26.863281 20.742188 26.878906 20.742188 26.878906 20.730469 Z M 26.878906 20.730469 " fill-opacity="1" fill-rule="nonzero"/><path fill="#453421" d="M 22.171875 23.894531 C 22.160156 23.894531 22.160156 23.878906 22.160156 23.867188 C 22.171875 23.839844 22.171875 23.8125 22.1875 23.800781 C 22.253906 23.695312 22.332031 23.601562 22.4375 23.511719 C 22.53125 23.433594 22.609375 23.339844 22.6875 23.234375 C 22.804688 23.050781 22.925781 22.878906 23.082031 22.734375 C 23.109375 22.707031 23.148438 22.679688 23.175781 22.640625 C 23.292969 22.507812 23.4375 22.429688 23.597656 22.378906 C 23.648438 22.363281 23.714844 22.351562 23.769531 22.339844 C 24.019531 22.285156 24.203125 22.140625 24.359375 21.957031 C 24.441406 21.863281 24.492188 21.773438 24.570312 21.679688 C 24.585938 21.652344 24.597656 21.613281 24.636719 21.640625 C 24.664062 21.667969 24.636719 21.691406 24.625 21.707031 C 24.464844 21.929688 24.28125 22.152344 24.097656 22.351562 C 24.03125 22.417969 23.964844 22.46875 23.898438 22.507812 C 23.742188 22.601562 23.582031 22.695312 23.414062 22.773438 C 23.28125 22.824219 23.160156 22.90625 23.042969 22.996094 C 22.992188 23.035156 22.953125 23.089844 22.898438 23.140625 C 22.820312 23.234375 22.742188 23.339844 22.660156 23.433594 C 22.582031 23.511719 22.515625 23.601562 22.425781 23.65625 C 22.34375 23.707031 22.292969 23.773438 22.238281 23.855469 C 22.199219 23.878906 22.199219 23.90625 22.171875 23.894531 Z M 22.171875 23.894531 " fill-opacity="1" fill-rule="nonzero"/><path fill="#453421" d="M 24.480469 24.683594 C 24.453125 24.683594 24.453125 24.671875 24.453125 24.644531 C 24.464844 24.632812 24.480469 24.605469 24.492188 24.589844 C 24.691406 24.433594 24.847656 24.25 25.019531 24.078125 C 25.085938 24.011719 25.164062 23.972656 25.230469 23.933594 C 25.296875 23.878906 25.363281 23.839844 25.414062 23.773438 C 25.535156 23.644531 25.664062 23.539062 25.8125 23.445312 C 25.980469 23.339844 26.140625 23.234375 26.296875 23.117188 C 26.390625 23.035156 26.484375 22.945312 26.550781 22.839844 C 26.5625 22.824219 26.5625 22.8125 26.574219 22.8125 C 26.589844 22.800781 26.589844 22.785156 26.601562 22.800781 C 26.628906 22.800781 26.613281 22.824219 26.613281 22.839844 C 26.613281 22.878906 26.589844 22.90625 26.574219 22.929688 C 26.484375 23.078125 26.378906 23.222656 26.246094 23.328125 C 26.140625 23.417969 26.046875 23.511719 25.96875 23.617188 C 25.8125 23.8125 25.613281 23.960938 25.363281 24.039062 C 25.203125 24.078125 25.097656 24.171875 24.980469 24.261719 C 24.835938 24.367188 24.71875 24.527344 24.570312 24.632812 C 24.53125 24.65625 24.507812 24.671875 24.480469 24.683594 Z M 24.480469 24.683594 " fill-opacity="1" fill-rule="nonzero"/><path fill="#453421" d="M 29.355469 28.597656 C 29.328125 28.570312 29.328125 28.546875 29.328125 28.519531 C 29.34375 28.375 29.367188 28.242188 29.382812 28.097656 C 29.382812 28.085938 29.394531 28.070312 29.394531 28.058594 C 29.394531 28.058594 29.410156 28.042969 29.410156 28.042969 C 29.421875 28.042969 29.421875 28.058594 29.421875 28.058594 C 29.421875 28.070312 29.421875 28.070312 29.421875 28.085938 C 29.410156 28.242188 29.382812 28.386719 29.367188 28.546875 C 29.382812 28.570312 29.382812 28.585938 29.355469 28.597656 Z M 29.355469 28.597656 " fill-opacity="1" fill-rule="nonzero"/><g fill="#453421" fill-opacity="1"><g transform="translate(13.060291, 32.301978)"><g><path d="M 1.28125 0.046875 C 1.390625 0.046875 1.453125 0.046875 1.546875 0.015625 C 1.953125 -0.09375 2.25 -0.390625 2.296875 -0.75 C 2.375 -1.34375 1.859375 -1.578125 1.46875 -1.765625 C 1.453125 -1.765625 1.421875 -1.78125 1.40625 -1.796875 C 0.984375 -1.984375 0.71875 -2.171875 0.734375 -2.46875 C 0.75 -3.171875 1.734375 -3.421875 2 -2.796875 L 2.109375 -2.84375 C 2 -3.109375 1.671875 -3.328125 1.1875 -3.234375 C 0.796875 -3.15625 0.4375 -2.875 0.421875 -2.484375 C 0.40625 -1.921875 0.984375 -1.640625 1.265625 -1.515625 C 1.296875 -1.515625 1.3125 -1.5 1.34375 -1.484375 C 1.765625 -1.296875 2.046875 -0.96875 1.984375 -0.625 C 1.859375 0.078125 0.9375 0.140625 0.453125 -0.53125 L 0.359375 -0.453125 C 0.625 -0.078125 0.96875 0.046875 1.28125 0.046875 Z M 1.28125 0.046875 "/></g></g></g><g fill="#453421" fill-opacity="1"><g transform="translate(15.635469, 32.301978)"><g><path d="M 0.453125 0 L 2.375 0 L 2.375 -0.125 L 0.765625 -0.125 L 0.765625 -1.578125 L 1.984375 -1.578125 L 1.984375 -1.703125 L 0.765625 -1.703125 L 0.765625 -3.125 L 2.28125 -3.125 L 2.28125 -3.25 L 0.453125 -3.25 Z M 0.453125 0 "/></g></g></g><g fill="#453421" fill-opacity="1"><g transform="translate(18.37781, 32.301978)"><g><path d="M 0.453125 0 L 0.75 0 L 0.75 -1.5625 L 1.234375 -1.5625 L 2.359375 0 L 2.703125 0 L 1.578125 -1.5625 C 2.03125 -1.5625 2.453125 -1.9375 2.453125 -2.40625 C 2.453125 -2.90625 2.03125 -3.25 1.59375 -3.25 L 0.453125 -3.25 Z M 0.75 -1.6875 L 0.75 -3.125 L 1.53125 -3.125 C 1.875 -3.125 2.15625 -2.75 2.15625 -2.40625 C 2.15625 -2.0625 1.875 -1.6875 1.53125 -1.6875 Z M 0.75 -1.6875 "/></g></g></g><g fill="#453421" fill-opacity="1"><g transform="translate(21.436405, 32.301978)"><g><path d="M 0.453125 0 L 0.75 0 L 0.75 -1.5625 L 1.234375 -1.5625 L 2.359375 0 L 2.703125 0 L 1.578125 -1.5625 C 2.03125 -1.5625 2.453125 -1.9375 2.453125 -2.40625 C 2.453125 -2.90625 2.03125 -3.25 1.59375 -3.25 L 0.453125 -3.25 Z M 0.75 -1.6875 L 0.75 -3.125 L 1.53125 -3.125 C 1.875 -3.125 2.15625 -2.75 2.15625 -2.40625 C 2.15625 -2.0625 1.875 -1.6875 1.53125 -1.6875 Z M 0.75 -1.6875 "/></g></g></g><g fill="#453421" fill-opacity="1"><g transform="translate(24.494998, 32.301978)"><g><path d="M 0.453125 0 L 0.578125 0 L 0.828125 -0.828125 L 2.1875 -0.828125 L 2.4375 0 L 2.765625 0 L 1.765625 -3.25 L 1.4375 -3.25 L 1.4375 -3.234375 Z M 0.875 -0.953125 L 1.515625 -3.03125 L 2.15625 -0.953125 Z M 0.875 -0.953125 "/></g></g></g><g fill="#453421" fill-opacity="1"><g transform="translate(27.625878, 32.301978)"><g><path d="M 0.453125 0 L 2.375 0 L 2.375 -0.125 L 0.765625 -0.125 L 0.765625 -3.25 L 0.453125 -3.25 Z M 0.453125 0 "/></g></g></g><g fill="#453421" fill-opacity="1"><g transform="translate(30.363701, 32.301978)"><g><path d="M 1.484375 0 L 1.796875 0 L 2.8125 -3.25 L 2.6875 -3.25 L 1.734375 -0.21875 L 0.765625 -3.25 L 0.453125 -3.25 Z M 1.484375 0 "/></g></g></g><g fill="#453421" fill-opacity="1"><g transform="translate(33.535242, 32.301978)"><g><path d="M 0.453125 0 L 2.375 0 L 2.375 -0.125 L 0.765625 -0.125 L 0.765625 -1.578125 L 1.984375 -1.578125 L 1.984375 -1.703125 L 0.765625 -1.703125 L 0.765625 -3.125 L 2.28125 -3.125 L 2.28125 -3.25 L 0.453125 -3.25 Z M 0.453125 0 "/></g></g></g><g fill="#453421" fill-opacity="1"><g transform="translate(36.277583, 32.301978)"><g><path d="M 1.28125 0.046875 C 1.390625 0.046875 1.453125 0.046875 1.546875 0.015625 C 1.953125 -0.09375 2.25 -0.390625 2.296875 -0.75 C 2.375 -1.34375 1.859375 -1.578125 1.46875 -1.765625 C 1.453125 -1.765625 1.421875 -1.78125 1.40625 -1.796875 C 0.984375 -1.984375 0.71875 -2.171875 0.734375 -2.46875 C 0.75 -3.171875 1.734375 -3.421875 2 -2.796875 L 2.109375 -2.84375 C 2 -3.109375 1.671875 -3.328125 1.1875 -3.234375 C 0.796875 -3.15625 0.4375 -2.875 0.421875 -2.484375 C 0.40625 -1.921875 0.984375 -1.640625 1.265625 -1.515625 C 1.296875 -1.515625 1.3125 -1.5 1.34375 -1.484375 C 1.765625 -1.296875 2.046875 -0.96875 1.984375 -0.625 C 1.859375 0.078125 0.9375 0.140625 0.453125 -0.53125 L 0.359375 -0.453125 C 0.625 -0.078125 0.96875 0.046875 1.28125 0.046875 Z M 1.28125 0.046875 "/></g></g></g><g fill="#453421" fill-opacity="1"><g transform="translate(20.488857, 34.533482)"><g><path d="M 0.390625 0.015625 C 0.59375 0.015625 0.71875 -0.09375 0.71875 -0.234375 C 0.71875 -0.40625 0.59375 -0.46875 0.390625 -0.5 C 0.234375 -0.53125 0.140625 -0.5625 0.140625 -0.6875 C 0.140625 -0.78125 0.234375 -0.84375 0.359375 -0.84375 C 0.5 -0.84375 0.578125 -0.765625 0.59375 -0.640625 L 0.6875 -0.640625 C 0.671875 -0.8125 0.546875 -0.90625 0.359375 -0.90625 C 0.1875 -0.90625 0.0625 -0.828125 0.0625 -0.6875 C 0.0625 -0.53125 0.171875 -0.46875 0.328125 -0.4375 C 0.515625 -0.40625 0.625 -0.375 0.625 -0.234375 C 0.625 -0.140625 0.546875 -0.0625 0.390625 -0.0625 C 0.234375 -0.0625 0.125 -0.140625 0.109375 -0.28125 L 0.03125 -0.28125 C 0.03125 -0.09375 0.1875 0.015625 0.390625 0.015625 Z M 0.390625 0.015625 "/></g></g></g><g fill="#453421" fill-opacity="1"><g transform="translate(22.237478, 34.533482)"><g><path d="M 0.328125 0 L 0.421875 0 L 0.421875 -0.828125 L 0.71875 -0.828125 L 0.71875 -0.890625 L 0.03125 -0.890625 L 0.03125 -0.828125 L 0.328125 -0.828125 Z M 0.328125 0 "/></g></g></g><g fill="#453421" fill-opacity="1"><g transform="translate(23.977361, 34.533482)"><g><path d="M 0.40625 0.015625 C 0.640625 0.015625 0.734375 -0.109375 0.734375 -0.3125 L 0.734375 -0.890625 L 0.640625 -0.890625 L 0.640625 -0.3125 C 0.640625 -0.140625 0.5625 -0.0625 0.40625 -0.0625 C 0.234375 -0.0625 0.15625 -0.140625 0.15625 -0.3125 L 0.15625 -0.890625 L 0.0625 -0.890625 L 0.0625 -0.3125 C 0.0625 -0.109375 0.171875 0.015625 0.40625 0.015625 Z M 0.40625 0.015625 "/></g></g></g><g fill="#453421" fill-opacity="1"><g transform="translate(25.774658, 34.533482)"><g><path d="M 0.078125 0 L 0.40625 0 C 0.671875 0 0.796875 -0.1875 0.796875 -0.4375 C 0.796875 -0.703125 0.671875 -0.890625 0.421875 -0.890625 L 0.078125 -0.890625 Z M 0.15625 -0.078125 L 0.15625 -0.828125 L 0.40625 -0.828125 C 0.609375 -0.828125 0.703125 -0.671875 0.703125 -0.4375 C 0.703125 -0.21875 0.59375 -0.078125 0.40625 -0.078125 Z M 0.15625 -0.078125 "/></g></g></g><g fill="#453421" fill-opacity="1"><g transform="translate(27.604405, 34.533482)"><g><path d="M 0.078125 0 L 0.171875 0 L 0.171875 -0.890625 L 0.078125 -0.890625 Z M 0.078125 0 "/></g></g></g><g fill="#453421" fill-opacity="1"><g transform="translate(28.847537, 34.533482)"><g><path d="M 0.453125 0.015625 C 0.71875 0.015625 0.875 -0.171875 0.875 -0.453125 C 0.875 -0.71875 0.71875 -0.90625 0.453125 -0.90625 C 0.203125 -0.90625 0.046875 -0.71875 0.046875 -0.453125 C 0.046875 -0.171875 0.203125 0.015625 0.453125 0.015625 Z M 0.453125 -0.0625 C 0.265625 -0.0625 0.125 -0.21875 0.125 -0.453125 C 0.125 -0.671875 0.265625 -0.84375 0.453125 -0.84375 C 0.65625 -0.84375 0.796875 -0.671875 0.796875 -0.453125 C 0.796875 -0.21875 0.65625 -0.0625 0.453125 -0.0625 Z M 0.453125 -0.0625 "/></g></g></g><g fill="#453421" fill-opacity="1"><g transform="translate(30.764654, 34.533482)"><g><path d="M 0.390625 0.015625 C 0.59375 0.015625 0.71875 -0.09375 0.71875 -0.234375 C 0.71875 -0.40625 0.59375 -0.46875 0.390625 -0.5 C 0.234375 -0.53125 0.140625 -0.5625 0.140625 -0.6875 C 0.140625 -0.78125 0.234375 -0.84375 0.359375 -0.84375 C 0.5 -0.84375 0.578125 -0.765625 0.59375 -0.640625 L 0.6875 -0.640625 C 0.671875 -0.8125 0.546875 -0.90625 0.359375 -0.90625 C 0.1875 -0.90625 0.0625 -0.828125 0.0625 -0.6875 C 0.0625 -0.53125 0.171875 -0.46875 0.328125 -0.4375 C 0.515625 -0.40625 0.625 -0.375 0.625 -0.234375 C 0.625 -0.140625 0.546875 -0.0625 0.390625 -0.0625 C 0.234375 -0.0625 0.125 -0.140625 0.109375 -0.28125 L 0.03125 -0.28125 C 0.03125 -0.09375 0.1875 0.015625 0.390625 0.015625 Z M 0.390625 0.015625 "/></g></g></g></svg>