<svg xmlns="http://www.w3.org/2000/svg" xmlns:xlink="http://www.w3.org/1999/xlink" width="70" zoomAndPan="magnify" viewBox="0 0 52.5 52.499999" height="70" preserveAspectRatio="xMidYMid meet" version="1.0"><defs><g/><clipPath id="8042f5af02"><path d="M 8.023438 11 L 45.171875 11 L 45.171875 25.855469 L 8.023438 25.855469 Z M 8.023438 11 " clip-rule="nonzero"/></clipPath></defs><g clip-path="url(#8042f5af02)"><path fill="#453421" d="M 25.296875 21.78125 C 25.351562 21.578125 25.445312 21.410156 25.519531 21.226562 C 25.59375 21.042969 25.703125 20.894531 25.796875 20.726562 C 25.222656 20.984375 24.648438 21.171875 24.054688 21.355469 C 24.09375 21.429688 24.148438 21.46875 24.183594 21.523438 C 24.332031 21.652344 24.464844 21.820312 24.574219 22.003906 C 24.648438 22.113281 24.722656 22.226562 24.796875 22.335938 C 24.851562 22.410156 24.871094 22.503906 24.890625 22.597656 C 24.925781 22.78125 25.035156 22.894531 25.222656 22.910156 C 25.316406 22.929688 25.386719 22.964844 25.460938 23.003906 C 25.5 23.023438 25.535156 23.023438 25.519531 23.097656 C 25.332031 23.039062 25.148438 23.023438 24.980469 22.949219 C 24.890625 22.910156 24.832031 22.835938 24.777344 22.761719 C 24.574219 22.503906 24.351562 22.261719 24.148438 21.984375 C 24.128906 21.96875 24.109375 21.929688 24.074219 21.929688 C 24.039062 21.949219 24.054688 21.984375 24.054688 22.023438 C 24.054688 22.152344 24.054688 22.300781 24.054688 22.429688 C 24.054688 22.484375 24.054688 22.558594 24 22.558594 C 23.925781 22.558594 23.945312 22.484375 23.945312 22.429688 C 23.925781 22.226562 23.871094 22.042969 23.722656 21.910156 C 23.648438 21.855469 23.613281 21.761719 23.574219 21.691406 C 23.554688 21.632812 23.519531 21.632812 23.480469 21.671875 C 23.425781 21.726562 23.371094 21.800781 23.332031 21.855469 C 23.128906 22.113281 22.925781 22.394531 22.667969 22.613281 C 22.40625 22.835938 22.148438 23.039062 21.871094 23.246094 C 21.6875 23.390625 21.484375 23.523438 21.277344 23.652344 C 21.222656 23.6875 21.148438 23.726562 21.09375 23.761719 C 21.074219 23.78125 21.058594 23.78125 21.039062 23.761719 C 21.039062 23.746094 21.039062 23.726562 21.058594 23.707031 C 21.148438 23.613281 21.242188 23.503906 21.351562 23.410156 C 21.742188 23.078125 22.113281 22.726562 22.445312 22.335938 C 22.613281 22.132812 22.777344 21.910156 22.945312 21.707031 C 23.054688 21.558594 23.167969 21.429688 23.296875 21.28125 C 23.445312 21.117188 23.628906 21.023438 23.832031 21.023438 C 24.296875 21.023438 24.703125 20.875 25.148438 20.746094 C 25.535156 20.632812 25.886719 20.449219 26.203125 20.207031 C 26.371094 20.078125 26.519531 19.929688 26.648438 19.78125 C 27 19.339844 27.425781 18.988281 27.867188 18.636719 C 27.925781 18.597656 27.980469 18.542969 28.035156 18.488281 C 28.128906 18.414062 28.222656 18.394531 28.332031 18.414062 C 28.609375 18.449219 28.886719 18.523438 29.128906 18.671875 C 29.21875 18.726562 29.332031 18.78125 29.441406 18.820312 C 29.738281 18.949219 29.925781 19.171875 30.035156 19.449219 C 30.054688 19.488281 30.054688 19.542969 30.089844 19.5625 C 30.128906 19.542969 30.128906 19.523438 30.128906 19.503906 C 30.183594 19.394531 30.257812 19.28125 30.332031 19.191406 C 30.480469 19.042969 30.589844 18.875 30.703125 18.710938 C 30.757812 18.617188 30.832031 18.523438 30.90625 18.414062 C 30.996094 18.285156 30.996094 18.265625 30.90625 18.152344 C 30.832031 18.042969 30.738281 17.949219 30.628906 17.859375 C 30.421875 17.671875 30.257812 17.449219 30.109375 17.210938 C 29.996094 17.023438 29.996094 16.820312 30.015625 16.617188 C 30.035156 16.433594 30.054688 16.246094 30.054688 16.0625 C 30.054688 15.96875 30.015625 15.894531 29.941406 15.839844 C 29.925781 15.820312 29.886719 15.804688 29.867188 15.785156 C 29.777344 15.730469 29.71875 15.65625 29.683594 15.5625 C 29.589844 15.320312 29.386719 15.171875 29.144531 15.042969 C 29.128906 15.210938 29.128906 15.359375 29.183594 15.507812 C 29.21875 15.65625 29.332031 15.746094 29.386719 15.894531 C 29.332031 15.914062 29.3125 15.894531 29.292969 15.875 C 29.203125 15.785156 29.109375 15.691406 29.035156 15.597656 C 28.960938 15.523438 28.925781 15.433594 28.886719 15.320312 C 28.851562 15.210938 28.8125 15.097656 28.792969 14.988281 C 28.777344 14.878906 28.71875 14.765625 28.664062 14.671875 C 28.589844 14.5625 28.535156 14.453125 28.515625 14.339844 C 28.5 14.230469 28.441406 14.117188 28.386719 14.027344 C 28.351562 13.96875 28.332031 13.933594 28.3125 13.878906 C 28.3125 13.839844 28.292969 13.804688 28.332031 13.785156 C 28.367188 13.765625 28.386719 13.804688 28.40625 13.804688 C 28.574219 13.933594 28.757812 14.042969 28.90625 14.246094 C 28.941406 14.101562 28.90625 13.96875 28.867188 13.839844 C 28.832031 13.746094 28.757812 13.65625 28.683594 13.582031 C 28.535156 13.433594 28.40625 13.265625 28.238281 13.117188 C 28.074219 12.953125 27.925781 12.765625 27.832031 12.542969 C 27.832031 12.527344 27.8125 12.507812 27.796875 12.488281 C 27.777344 12.617188 27.738281 12.75 27.703125 12.859375 C 27.703125 12.878906 27.703125 12.894531 27.683594 12.914062 C 27.664062 12.933594 27.648438 12.933594 27.628906 12.914062 C 27.609375 12.894531 27.609375 12.859375 27.609375 12.824219 C 27.628906 12.675781 27.589844 12.542969 27.554688 12.398438 C 27.515625 12.175781 27.515625 11.953125 27.554688 11.730469 C 27.574219 11.636719 27.609375 11.5625 27.648438 11.488281 C 27.589844 11.472656 27.574219 11.507812 27.535156 11.527344 C 27.3125 11.675781 27.089844 11.804688 26.871094 11.953125 C 26.664062 12.101562 26.445312 12.175781 26.203125 12.210938 C 26.183594 12.210938 26.148438 12.210938 26.128906 12.230469 C 26.109375 12.265625 26.148438 12.285156 26.167969 12.304688 C 26.238281 12.398438 26.3125 12.488281 26.351562 12.601562 C 26.40625 12.765625 26.5 12.878906 26.609375 12.988281 C 26.648438 13.027344 26.664062 13.042969 26.703125 13.082031 C 26.722656 13.101562 26.722656 13.117188 26.703125 13.136719 C 26.683594 13.15625 26.664062 13.15625 26.648438 13.136719 C 26.535156 13.027344 26.371094 12.953125 26.277344 12.804688 C 26.183594 12.675781 26.074219 12.582031 25.945312 12.507812 C 25.8125 12.433594 25.683594 12.359375 25.59375 12.25 C 25.554688 12.191406 25.5 12.191406 25.445312 12.210938 C 25.371094 12.230469 25.277344 12.25 25.203125 12.285156 C 25.074219 12.359375 24.925781 12.414062 24.796875 12.488281 C 24.722656 12.527344 24.667969 12.5625 24.609375 12.636719 C 24.519531 12.75 24.425781 12.859375 24.332031 13.007812 C 24.40625 13.007812 24.445312 12.96875 24.5 12.953125 C 24.667969 12.878906 24.832031 12.824219 25.035156 12.839844 C 25.183594 12.839844 25.277344 12.765625 25.386719 12.691406 C 25.40625 12.65625 25.445312 12.582031 25.480469 12.617188 C 25.519531 12.65625 25.460938 12.691406 25.425781 12.730469 C 25.296875 12.914062 25.109375 13.027344 24.890625 13.082031 C 24.554688 13.15625 24.277344 13.339844 24.019531 13.582031 C 23.796875 13.785156 23.554688 13.96875 23.332031 14.15625 C 23.113281 14.320312 22.945312 14.542969 22.761719 14.765625 C 22.703125 14.820312 22.6875 14.894531 22.667969 14.96875 C 22.648438 15.210938 22.480469 15.394531 22.296875 15.5625 C 22.242188 15.597656 22.203125 15.636719 22.128906 15.710938 C 22.316406 15.65625 22.445312 15.582031 22.574219 15.488281 C 22.796875 15.359375 23.039062 15.230469 23.242188 15.042969 C 23.257812 15.023438 23.296875 15.007812 23.316406 14.988281 C 23.464844 14.914062 23.59375 14.820312 23.683594 14.691406 C 23.722656 14.746094 23.703125 14.765625 23.683594 14.785156 C 23.445312 15.0625 23.203125 15.339844 22.871094 15.542969 C 22.425781 15.804688 21.984375 16.0625 21.574219 16.375 C 21.351562 16.542969 21.113281 16.691406 20.871094 16.839844 C 20.667969 16.96875 20.484375 17.136719 20.335938 17.320312 C 19.925781 17.839844 19.648438 18.414062 19.390625 19.023438 C 19.355469 19.097656 19.355469 19.171875 19.28125 19.226562 C 19.242188 19.191406 19.261719 19.152344 19.28125 19.117188 C 19.390625 18.839844 19.445312 18.542969 19.574219 18.246094 C 19.632812 18.136719 19.667969 18.003906 19.722656 17.894531 C 19.816406 17.710938 19.910156 17.503906 19.964844 17.300781 C 20 17.171875 20.058594 17.042969 20.113281 16.894531 C 19.945312 16.988281 19.796875 17.097656 19.667969 17.246094 C 19.429688 17.523438 19.242188 17.820312 19.058594 18.136719 C 18.964844 18.300781 18.855469 18.46875 18.761719 18.636719 C 18.6875 18.765625 18.632812 18.894531 18.632812 19.042969 C 18.632812 19.171875 18.59375 19.28125 18.519531 19.394531 C 18.429688 19.542969 18.355469 19.691406 18.28125 19.839844 C 18.28125 19.855469 18.261719 19.875 18.242188 19.894531 C 18.242188 19.914062 18.222656 19.914062 18.207031 19.914062 C 18.207031 19.914062 18.1875 19.894531 18.1875 19.875 C 18.1875 19.839844 18.207031 19.800781 18.207031 19.765625 C 18.261719 19.652344 18.296875 19.542969 18.355469 19.449219 C 18.445312 19.28125 18.445312 19.097656 18.429688 18.914062 C 18.390625 18.914062 18.390625 18.929688 18.371094 18.949219 C 18.152344 19.300781 17.855469 19.597656 17.539062 19.855469 C 17.484375 19.914062 17.429688 19.949219 17.390625 20.023438 C 17.28125 20.226562 17.152344 20.449219 17.039062 20.652344 C 16.929688 20.910156 16.761719 21.152344 16.652344 21.410156 C 16.578125 21.558594 16.539062 21.726562 16.523438 21.894531 C 16.484375 22.1875 16.316406 22.449219 16.113281 22.652344 C 16.113281 22.652344 16.097656 22.671875 16.078125 22.671875 C 16.039062 22.652344 16.078125 22.613281 16.078125 22.597656 C 16.132812 22.484375 16.1875 22.375 16.242188 22.261719 C 16.300781 22.152344 16.335938 22.023438 16.316406 21.894531 C 16.28125 21.671875 16.300781 21.449219 16.335938 21.226562 C 16.335938 21.207031 16.335938 21.207031 16.335938 21.191406 C 16.28125 21.191406 16.261719 21.246094 16.242188 21.265625 C 16.003906 21.558594 15.726562 21.820312 15.410156 22.042969 C 15.300781 22.132812 15.1875 22.226562 15.078125 22.335938 C 14.929688 22.484375 14.761719 22.632812 14.597656 22.761719 C 14.410156 22.929688 14.1875 23.058594 13.984375 23.1875 C 13.761719 23.320312 13.558594 23.464844 13.394531 23.671875 C 13.375 23.6875 13.355469 23.726562 13.335938 23.707031 C 13.320312 23.6875 13.320312 23.671875 13.320312 23.632812 C 13.335938 23.558594 13.375 23.503906 13.410156 23.449219 C 13.503906 23.320312 13.597656 23.226562 13.707031 23.113281 C 13.820312 23.003906 13.910156 22.910156 14.023438 22.820312 C 14.078125 22.761719 14.113281 22.707031 14.171875 22.652344 C 14.355469 22.375 14.523438 22.113281 14.746094 21.875 C 14.78125 21.835938 14.800781 21.800781 14.835938 21.761719 C 15.113281 21.503906 15.316406 21.191406 15.578125 20.910156 C 15.671875 20.800781 15.707031 20.652344 15.707031 20.503906 C 15.707031 20.375 15.652344 20.265625 15.539062 20.171875 C 15.503906 20.132812 15.464844 20.132812 15.429688 20.191406 C 15.410156 20.207031 15.390625 20.246094 15.375 20.265625 C 15.226562 20.46875 15.058594 20.632812 14.835938 20.765625 C 14.746094 20.820312 14.671875 20.910156 14.578125 20.96875 C 14.539062 21.003906 14.503906 21.042969 14.449219 21.042969 C 14.410156 21.003906 14.449219 20.984375 14.449219 20.96875 C 14.503906 20.875 14.558594 20.800781 14.652344 20.726562 C 14.78125 20.617188 14.855469 20.484375 14.890625 20.339844 C 14.929688 20.207031 14.984375 20.097656 15.058594 19.988281 C 15.113281 19.894531 15.1875 19.800781 15.28125 19.746094 C 15.375 19.691406 15.449219 19.597656 15.484375 19.488281 C 15.597656 19.191406 15.726562 18.914062 15.890625 18.636719 C 16.003906 18.429688 16.003906 18.226562 15.890625 18.042969 C 15.78125 17.839844 15.652344 17.617188 15.503906 17.394531 C 15.464844 17.503906 15.449219 17.597656 15.429688 17.691406 C 15.429688 17.726562 15.410156 17.765625 15.410156 17.800781 C 15.410156 18.097656 15.261719 18.339844 15.1875 18.617188 C 15.171875 18.671875 15.132812 18.726562 15.097656 18.765625 C 14.964844 18.875 14.820312 18.96875 14.6875 19.0625 C 14.632812 19.023438 14.652344 19.003906 14.671875 18.988281 C 14.6875 18.949219 14.707031 18.894531 14.761719 18.875 C 14.949219 18.765625 14.984375 18.578125 15.003906 18.375 C 15.003906 18.300781 15.023438 18.226562 15.039062 18.152344 C 15.058594 18.0625 15.097656 17.988281 15.152344 17.914062 C 15.246094 17.800781 15.28125 17.691406 15.246094 17.5625 C 15.207031 17.394531 15.171875 17.210938 15.1875 17.007812 C 15.097656 17.0625 15.023438 17.097656 14.949219 17.136719 C 14.875 17.171875 14.800781 17.226562 14.726562 17.265625 C 14.632812 17.320312 14.539062 17.339844 14.429688 17.320312 C 14.28125 17.300781 14.171875 17.359375 14.078125 17.46875 C 13.929688 17.636719 13.761719 17.765625 13.597656 17.894531 C 13.558594 17.914062 13.542969 17.929688 13.523438 17.96875 C 13.28125 18.285156 13.003906 18.578125 12.820312 18.949219 C 12.691406 19.207031 12.523438 19.429688 12.375 19.671875 C 12.320312 19.765625 12.246094 19.855469 12.171875 19.96875 C 12.097656 20.078125 12.003906 20.191406 11.914062 20.300781 C 11.820312 20.394531 11.820312 20.394531 11.914062 20.46875 C 12.003906 20.558594 12.097656 20.652344 12.171875 20.765625 C 12.226562 20.855469 12.265625 20.929688 12.265625 21.042969 C 12.265625 21.265625 12.375 21.410156 12.597656 21.46875 C 12.632812 21.484375 12.691406 21.484375 12.746094 21.503906 C 12.855469 21.542969 12.910156 21.597656 12.96875 21.691406 C 12.984375 21.707031 12.984375 21.746094 12.96875 21.78125 C 12.949219 21.800781 12.910156 21.820312 12.894531 21.800781 C 12.78125 21.726562 12.632812 21.726562 12.503906 21.691406 C 12.28125 21.617188 12.132812 21.449219 12.097656 21.226562 C 12.058594 21.042969 11.984375 20.929688 11.820312 20.855469 C 11.707031 20.800781 11.652344 20.707031 11.558594 20.632812 C 11.523438 20.578125 11.46875 20.542969 11.414062 20.503906 C 11.355469 20.46875 11.320312 20.46875 11.28125 20.523438 C 11.265625 20.542969 11.246094 20.558594 11.226562 20.578125 C 11.097656 20.78125 10.929688 20.96875 10.839844 21.191406 C 10.78125 21.320312 10.691406 21.429688 10.597656 21.523438 C 10.542969 21.558594 10.523438 21.597656 10.578125 21.652344 C 10.636719 21.707031 10.671875 21.78125 10.707031 21.855469 C 10.746094 21.929688 10.78125 21.984375 10.800781 22.058594 C 10.820312 22.097656 10.875 22.152344 10.820312 22.171875 C 10.765625 22.207031 10.746094 22.132812 10.726562 22.113281 C 10.671875 22.058594 10.636719 22.003906 10.597656 21.929688 C 10.542969 21.835938 10.46875 21.78125 10.355469 21.78125 C 10.246094 21.761719 10.136719 21.726562 10.042969 21.652344 C 9.855469 21.503906 9.839844 21.503906 9.691406 21.691406 C 9.597656 21.800781 9.488281 21.929688 9.394531 22.042969 C 9.265625 22.1875 9.191406 22.335938 9.136719 22.523438 C 9.097656 22.613281 9.0625 22.707031 9.003906 22.78125 C 8.949219 22.875 8.914062 22.964844 8.894531 23.078125 C 8.875 23.152344 8.859375 23.226562 8.839844 23.300781 C 8.820312 23.355469 8.800781 23.390625 8.765625 23.429688 C 8.746094 23.449219 8.726562 23.484375 8.691406 23.449219 C 8.671875 23.429688 8.671875 23.390625 8.691406 23.375 C 8.820312 23.1875 8.785156 23.023438 8.785156 22.835938 C 8.726562 22.855469 8.710938 22.910156 8.671875 22.949219 C 8.507812 23.171875 8.359375 23.375 8.171875 23.578125 C 8.152344 23.613281 8.117188 23.671875 8.082031 23.632812 C 8.023438 23.597656 8.082031 23.539062 8.097656 23.503906 C 8.414062 23.023438 8.710938 22.539062 9.097656 22.097656 C 9.226562 21.949219 9.359375 21.78125 9.449219 21.597656 C 9.503906 21.503906 9.578125 21.394531 9.652344 21.300781 C 9.746094 21.171875 9.855469 21.152344 10.003906 21.191406 C 10.097656 21.226562 10.191406 21.226562 10.28125 21.226562 C 10.449219 21.226562 10.578125 21.171875 10.671875 21.023438 C 10.726562 20.949219 10.78125 20.875 10.839844 20.78125 C 10.949219 20.578125 11.097656 20.394531 11.207031 20.191406 C 11.265625 20.117188 11.320312 20.078125 11.414062 20.097656 C 11.449219 20.097656 11.488281 20.117188 11.503906 20.117188 C 11.578125 20.132812 11.617188 20.117188 11.652344 20.058594 C 11.855469 19.765625 12.058594 19.46875 12.246094 19.171875 C 12.335938 19.023438 12.449219 18.875 12.578125 18.765625 C 12.671875 18.671875 12.761719 18.578125 12.835938 18.46875 C 12.855469 18.429688 12.894531 18.394531 12.910156 18.355469 C 13.078125 18.152344 13.246094 17.96875 13.355469 17.726562 C 13.410156 17.578125 13.523438 17.46875 13.632812 17.359375 C 13.6875 17.300781 13.726562 17.246094 13.78125 17.210938 C 13.910156 17.097656 14.058594 17.0625 14.226562 17.117188 C 14.394531 17.191406 14.523438 17.152344 14.671875 17.0625 C 14.835938 16.96875 14.964844 16.859375 15.058594 16.710938 C 15.132812 16.597656 15.246094 16.523438 15.335938 16.414062 C 15.375 16.375 15.429688 16.359375 15.464844 16.339844 C 15.597656 16.320312 15.707031 16.320312 15.835938 16.300781 C 15.964844 16.300781 16.097656 16.339844 16.1875 16.433594 C 16.390625 16.636719 16.632812 16.746094 16.890625 16.820312 C 17.261719 16.933594 17.484375 17.171875 17.558594 17.542969 C 17.558594 17.578125 17.578125 17.597656 17.578125 17.636719 C 17.632812 17.800781 17.726562 17.949219 17.890625 18.042969 C 18.003906 18.097656 18.09375 18.171875 18.207031 18.226562 C 18.296875 18.285156 18.296875 18.285156 18.390625 18.210938 C 18.578125 18.023438 18.742188 17.800781 18.871094 17.5625 C 19.1875 16.96875 19.648438 16.523438 20.242188 16.230469 C 20.445312 16.117188 20.667969 16.042969 20.910156 15.988281 C 21.242188 15.894531 21.539062 15.746094 21.816406 15.523438 C 21.964844 15.394531 22.128906 15.285156 22.277344 15.136719 C 22.371094 15.042969 22.445312 14.933594 22.480469 14.804688 C 22.539062 14.636719 22.628906 14.488281 22.742188 14.359375 C 22.90625 14.171875 23.09375 13.988281 23.257812 13.804688 C 23.574219 13.46875 23.890625 13.15625 24.148438 12.804688 C 24.222656 12.691406 24.316406 12.582031 24.390625 12.46875 C 24.480469 12.339844 24.609375 12.230469 24.757812 12.15625 C 24.871094 12.101562 24.980469 12.042969 25.09375 11.988281 C 25.277344 11.898438 25.460938 11.859375 25.667969 11.859375 C 25.871094 11.859375 26.054688 11.859375 26.238281 11.839844 C 26.425781 11.804688 26.609375 11.75 26.777344 11.65625 C 27.109375 11.472656 27.425781 11.285156 27.757812 11.082031 C 27.867188 11.007812 27.886719 11.007812 27.960938 11.121094 C 28.203125 11.433594 28.40625 11.75 28.628906 12.0625 C 28.703125 12.191406 28.792969 12.304688 28.90625 12.414062 C 29 12.507812 29.109375 12.601562 29.257812 12.617188 C 29.480469 12.65625 29.589844 12.824219 29.644531 13.007812 C 29.664062 13.042969 29.683594 13.101562 29.683594 13.136719 C 29.71875 13.320312 29.792969 13.488281 29.90625 13.636719 C 30.054688 13.839844 30.203125 14.042969 30.351562 14.246094 C 30.367188 14.265625 30.386719 14.304688 30.40625 14.320312 C 30.535156 14.507812 30.703125 14.617188 30.921875 14.65625 C 31.015625 14.671875 31.054688 14.710938 31.109375 14.785156 C 31.21875 14.953125 31.3125 15.117188 31.386719 15.304688 C 31.515625 15.617188 31.699219 15.894531 31.921875 16.15625 C 32.015625 16.265625 32.125 16.359375 32.238281 16.449219 C 32.347656 16.542969 32.460938 16.636719 32.550781 16.746094 C 32.644531 16.859375 32.757812 16.933594 32.8125 17.0625 C 32.867188 17.152344 32.976562 17.171875 33.070312 17.136719 C 33.144531 17.097656 33.238281 17.0625 33.292969 16.988281 C 33.421875 16.820312 33.589844 16.691406 33.738281 16.542969 C 33.867188 16.433594 33.976562 16.300781 34.089844 16.191406 C 34.238281 16.023438 34.421875 15.96875 34.644531 15.988281 C 34.71875 15.988281 34.773438 15.988281 34.828125 15.933594 C 35.089844 15.746094 35.328125 15.5625 35.550781 15.320312 C 35.644531 15.230469 35.71875 15.117188 35.792969 15.007812 C 35.921875 14.839844 36.050781 14.671875 36.179688 14.488281 C 36.367188 14.246094 36.625 14.171875 36.902344 14.171875 C 37.03125 14.171875 37.125 14.230469 37.179688 14.339844 C 37.292969 14.542969 37.421875 14.710938 37.550781 14.894531 C 37.605469 14.988281 37.679688 15.0625 37.773438 15.136719 C 37.828125 15.171875 37.867188 15.210938 37.902344 15.265625 C 38.085938 15.488281 38.292969 15.671875 38.476562 15.894531 C 38.550781 15.988281 38.644531 16.0625 38.71875 16.136719 C 39.03125 16.394531 39.234375 16.746094 39.402344 17.117188 C 39.476562 17.300781 39.496094 17.488281 39.496094 17.671875 C 39.496094 17.765625 39.496094 17.839844 39.496094 17.929688 C 39.496094 18.136719 39.53125 18.320312 39.605469 18.503906 C 39.773438 18.894531 39.957031 19.28125 40.199219 19.632812 C 40.328125 19.820312 40.476562 19.929688 40.679688 20.023438 C 40.957031 20.132812 41.214844 20.300781 41.492188 20.449219 C 41.566406 20.484375 41.605469 20.542969 41.660156 20.578125 C 41.882812 20.800781 42.085938 21.058594 42.234375 21.355469 C 42.289062 21.449219 42.34375 21.542969 42.402344 21.632812 C 42.511719 21.835938 42.660156 22.023438 42.769531 22.226562 C 42.84375 22.394531 42.992188 22.503906 43.121094 22.613281 C 43.269531 22.726562 43.417969 22.855469 43.566406 22.984375 C 43.679688 23.078125 43.753906 23.1875 43.769531 23.335938 C 43.789062 23.464844 43.84375 23.558594 43.9375 23.652344 C 43.972656 23.6875 44.011719 23.761719 44.046875 23.816406 C 44.179688 24.078125 44.34375 24.300781 44.546875 24.503906 C 44.769531 24.726562 44.898438 24.984375 45.046875 25.261719 C 45.046875 25.28125 45.066406 25.300781 45.046875 25.316406 C 45.03125 25.335938 45.011719 25.335938 44.992188 25.316406 C 44.957031 25.300781 44.9375 25.242188 44.917969 25.207031 C 44.824219 24.984375 44.660156 24.800781 44.457031 24.652344 C 44.308594 24.539062 44.179688 24.410156 44.046875 24.28125 C 44.03125 24.261719 44.011719 24.242188 43.972656 24.226562 C 43.9375 24.261719 43.957031 24.28125 43.972656 24.316406 C 44.011719 24.390625 44.03125 24.464844 44.066406 24.539062 C 44.085938 24.578125 44.105469 24.632812 44.121094 24.667969 C 44.140625 24.726562 44.121094 24.761719 44.085938 24.800781 C 44.03125 24.835938 43.992188 24.816406 43.9375 24.800781 C 43.898438 24.78125 43.882812 24.761719 43.863281 24.726562 C 43.660156 24.523438 43.457031 24.316406 43.234375 24.132812 C 43.046875 23.984375 42.917969 23.800781 42.769531 23.613281 C 42.640625 23.464844 42.511719 23.320312 42.382812 23.1875 C 42.234375 23.039062 42.085938 22.894531 41.957031 22.746094 C 41.769531 22.523438 41.550781 22.355469 41.328125 22.1875 C 41.140625 22.058594 40.9375 21.984375 40.714844 22.003906 C 40.640625 22.003906 40.625 22.023438 40.660156 22.078125 C 40.714844 22.207031 40.773438 22.335938 40.808594 22.484375 C 40.863281 22.632812 40.957031 22.746094 41.066406 22.835938 C 41.4375 23.207031 41.714844 23.652344 42.050781 24.058594 C 42.066406 24.078125 42.066406 24.097656 42.085938 24.113281 C 42.085938 24.132812 42.085938 24.152344 42.066406 24.171875 C 42.050781 24.1875 42.03125 24.1875 42.011719 24.1875 C 41.957031 24.171875 41.9375 24.113281 41.902344 24.078125 C 41.714844 23.855469 41.53125 23.632812 41.34375 23.410156 C 41.179688 23.207031 40.992188 23.039062 40.808594 22.855469 C 40.679688 22.746094 40.566406 22.632812 40.476562 22.484375 C 40.214844 22.058594 39.847656 21.707031 39.476562 21.375 C 39.160156 21.097656 38.921875 20.746094 38.71875 20.394531 C 38.71875 20.394531 38.71875 20.394531 38.71875 20.375 C 38.699219 20.320312 38.660156 20.265625 38.71875 20.226562 C 38.773438 20.191406 38.808594 20.265625 38.847656 20.300781 C 39.03125 20.503906 39.199219 20.707031 39.402344 20.875 C 39.476562 20.949219 39.570312 21.003906 39.660156 21.058594 C 39.660156 21.003906 39.640625 20.96875 39.625 20.949219 C 39.421875 20.671875 39.234375 20.375 39.03125 20.078125 C 38.847656 19.800781 38.625 19.542969 38.421875 19.28125 C 38.382812 19.246094 38.363281 19.226562 38.308594 19.28125 C 38.234375 19.375 38.144531 19.449219 38.050781 19.523438 C 37.957031 19.597656 37.867188 19.691406 37.808594 19.800781 C 37.734375 19.949219 37.660156 20.097656 37.605469 20.265625 C 37.585938 20.320312 37.570312 20.375 37.53125 20.414062 C 37.496094 20.375 37.515625 20.339844 37.515625 20.300781 C 37.53125 20.226562 37.570312 20.152344 37.585938 20.078125 C 37.644531 19.96875 37.679688 19.855469 37.699219 19.726562 C 37.71875 19.578125 37.773438 19.449219 37.867188 19.339844 C 37.996094 19.152344 38.105469 18.949219 38.179688 18.726562 C 38.234375 18.578125 38.273438 18.429688 38.308594 18.285156 C 38.328125 18.210938 38.308594 18.152344 38.253906 18.097656 C 37.996094 17.859375 37.773438 17.578125 37.53125 17.320312 C 37.421875 17.210938 37.292969 17.136719 37.160156 17.042969 C 36.996094 16.914062 36.828125 16.800781 36.644531 16.710938 C 36.550781 16.671875 36.550781 16.671875 36.515625 16.765625 C 36.441406 16.949219 36.402344 17.152344 36.367188 17.359375 C 36.347656 17.542969 36.273438 17.726562 36.273438 17.914062 C 36.273438 17.929688 36.253906 17.929688 36.253906 17.949219 C 36.238281 17.96875 36.21875 17.949219 36.21875 17.929688 C 36.179688 17.894531 36.179688 17.839844 36.179688 17.800781 C 36.179688 17.636719 36.144531 17.46875 36.144531 17.300781 C 36.125 17.023438 36.125 16.746094 36.253906 16.507812 C 36.273438 16.46875 36.292969 16.433594 36.292969 16.394531 C 36.292969 16.171875 36.347656 15.96875 36.421875 15.765625 C 36.441406 15.691406 36.476562 15.597656 36.496094 15.523438 C 36.550781 15.378906 36.515625 15.265625 36.421875 15.15625 C 36.382812 15.097656 36.347656 15.007812 36.292969 15.007812 C 36.21875 14.988281 36.199219 15.082031 36.144531 15.136719 C 35.882812 15.394531 35.605469 15.636719 35.328125 15.875 C 35.21875 15.96875 35.105469 16.082031 35.015625 16.191406 C 34.902344 16.339844 34.792969 16.46875 34.664062 16.597656 C 34.625 16.636719 34.589844 16.671875 34.550781 16.726562 C 34.460938 16.875 34.367188 17.023438 34.273438 17.171875 C 34.21875 17.265625 34.179688 17.359375 34.144531 17.449219 C 34.109375 17.597656 34.015625 17.710938 33.886719 17.800781 C 33.699219 17.949219 33.515625 18.097656 33.328125 18.246094 C 33.199219 18.355469 33.070312 18.488281 33.050781 18.671875 C 33.050781 18.691406 33.035156 18.726562 32.996094 18.710938 C 32.960938 18.710938 32.960938 18.671875 32.960938 18.652344 C 32.960938 18.578125 32.996094 18.523438 33.035156 18.46875 C 33.144531 18.285156 33.292969 18.117188 33.441406 17.949219 C 33.460938 17.929688 33.496094 17.894531 33.515625 17.875 C 33.699219 17.710938 33.847656 17.523438 33.941406 17.300781 C 34.050781 17.042969 34.253906 16.839844 34.421875 16.617188 C 34.441406 16.597656 34.460938 16.582031 34.460938 16.5625 C 34.421875 16.5625 34.386719 16.597656 34.367188 16.617188 C 34.238281 16.691406 34.109375 16.765625 33.976562 16.859375 C 33.8125 16.949219 33.644531 17.0625 33.515625 17.210938 C 33.496094 17.246094 33.460938 17.265625 33.421875 17.285156 C 33.125 17.503906 32.941406 17.800781 32.757812 18.097656 C 32.644531 18.285156 32.515625 18.46875 32.386719 18.652344 C 32.183594 18.929688 32.015625 19.246094 31.867188 19.5625 C 31.792969 19.726562 31.683594 19.855469 31.535156 19.96875 C 31.496094 19.988281 31.460938 20.058594 31.40625 20.003906 C 31.347656 19.949219 31.421875 19.914062 31.460938 19.875 C 31.628906 19.746094 31.699219 19.578125 31.757812 19.394531 C 31.773438 19.28125 31.8125 19.171875 31.847656 19.0625 C 31.832031 19.042969 31.832031 19.042969 31.8125 19.042969 C 31.480469 19.226562 31.128906 19.414062 30.792969 19.632812 C 30.71875 19.691406 30.664062 19.746094 30.628906 19.839844 C 30.609375 19.894531 30.570312 19.949219 30.554688 20.023438 C 30.496094 20.132812 30.496094 20.132812 30.589844 20.207031 C 30.703125 20.339844 30.832031 20.46875 30.941406 20.597656 C 31.109375 20.765625 31.257812 20.949219 31.40625 21.117188 C 31.480469 21.207031 31.589844 21.28125 31.683594 21.375 C 31.960938 21.632812 32.273438 21.875 32.496094 22.1875 C 32.609375 22.335938 32.757812 22.449219 32.886719 22.558594 C 32.960938 22.613281 33.050781 22.671875 33.144531 22.6875 C 33.402344 22.761719 33.609375 22.910156 33.753906 23.132812 C 33.902344 23.335938 34.035156 23.523438 34.164062 23.726562 C 34.3125 23.949219 34.460938 24.132812 34.699219 24.261719 C 34.71875 24.28125 34.738281 24.28125 34.738281 24.316406 C 34.679688 24.335938 34.644531 24.300781 34.605469 24.28125 C 34.515625 24.226562 34.421875 24.171875 34.347656 24.097656 C 34.035156 23.816406 33.71875 23.539062 33.386719 23.246094 C 33.3125 23.171875 33.21875 23.113281 33.125 23.058594 C 32.941406 22.949219 32.773438 22.835938 32.625 22.707031 C 32.609375 22.6875 32.609375 22.6875 32.589844 22.6875 C 32.570312 22.726562 32.589844 22.746094 32.609375 22.761719 C 32.699219 22.949219 32.792969 23.132812 32.847656 23.335938 C 32.921875 23.558594 33.050781 23.726562 33.238281 23.875 C 33.476562 24.078125 33.738281 24.261719 33.996094 24.449219 C 34.253906 24.613281 34.476562 24.816406 34.679688 25.058594 C 34.902344 25.316406 35.144531 25.539062 35.441406 25.707031 C 35.457031 25.726562 35.496094 25.742188 35.515625 25.761719 C 35.570312 25.800781 35.589844 25.855469 35.570312 25.910156 C 35.550781 25.964844 35.496094 25.984375 35.441406 25.984375 C 35.386719 25.984375 35.328125 25.945312 35.273438 25.929688 C 35.03125 25.816406 34.828125 25.667969 34.625 25.503906 C 34.476562 25.355469 34.3125 25.207031 34.164062 25.058594 C 34.109375 25.003906 34.035156 24.949219 33.941406 24.929688 C 33.644531 24.875 33.402344 24.726562 33.199219 24.523438 C 32.960938 24.261719 32.644531 24.078125 32.367188 23.890625 C 32.257812 23.816406 32.164062 23.761719 32.054688 23.707031 C 32.054688 23.707031 32.035156 23.726562 32.035156 23.726562 C 32.070312 23.816406 32.125 23.910156 32.164062 23.984375 C 32.3125 24.226562 32.441406 24.484375 32.535156 24.761719 C 32.550781 24.835938 32.589844 24.890625 32.625 24.964844 C 32.644531 24.984375 32.644531 25.003906 32.625 25.023438 C 32.609375 25.039062 32.570312 25.023438 32.550781 25.003906 C 32.515625 24.964844 32.496094 24.929688 32.480469 24.890625 C 32.441406 24.800781 32.40625 24.6875 32.367188 24.597656 C 32.292969 24.410156 32.199219 24.242188 32.070312 24.097656 C 31.960938 23.949219 31.847656 23.800781 31.757812 23.632812 C 31.644531 23.429688 31.496094 23.261719 31.332031 23.113281 C 31.273438 23.078125 31.21875 23.023438 31.144531 22.964844 C 31.144531 23.207031 31.203125 23.410156 31.238281 23.613281 C 31.183594 23.613281 31.164062 23.578125 31.164062 23.558594 C 31.144531 23.484375 31.128906 23.390625 31.109375 23.320312 C 31.070312 23.113281 30.980469 22.929688 30.8125 22.800781 C 30.757812 22.761719 30.703125 22.707031 30.664062 22.671875 C 30.554688 22.558594 30.441406 22.449219 30.367188 22.320312 C 30.3125 22.207031 30.238281 22.117188 30.164062 22.042969 C 30.035156 21.910156 29.925781 21.78125 29.832031 21.632812 C 29.832031 21.617188 29.8125 21.597656 29.792969 21.597656 C 29.777344 21.597656 29.777344 21.617188 29.777344 21.632812 C 29.757812 21.894531 29.738281 22.132812 29.757812 22.394531 C 29.777344 22.671875 29.757812 22.949219 29.71875 23.226562 C 29.71875 23.246094 29.71875 23.246094 29.71875 23.261719 C 29.703125 23.300781 29.71875 23.355469 29.664062 23.355469 C 29.628906 23.355469 29.628906 23.300781 29.628906 23.261719 C 29.628906 23.226562 29.628906 23.1875 29.628906 23.152344 C 29.664062 22.671875 29.628906 22.207031 29.570312 21.726562 C 29.554688 21.449219 29.515625 21.171875 29.441406 20.894531 C 29.386719 20.691406 29.292969 20.503906 29.164062 20.339844 C 29.089844 20.226562 29 20.132812 28.960938 20.003906 C 28.851562 19.765625 28.683594 19.597656 28.554688 19.375 C 28.554688 19.355469 28.535156 19.355469 28.515625 19.339844 C 28.425781 19.5625 28.292969 19.746094 28.238281 19.988281 C 28.183594 20.246094 28.074219 20.484375 27.941406 20.726562 C 27.851562 20.894531 27.703125 21.042969 27.554688 21.171875 C 27.332031 21.355469 27.148438 21.578125 26.980469 21.820312 C 26.945312 21.855469 26.925781 21.910156 26.886719 21.929688 C 26.851562 21.910156 26.871094 21.894531 26.886719 21.875 C 26.980469 21.671875 27.109375 21.484375 27.257812 21.335938 C 27.40625 21.191406 27.554688 21.058594 27.683594 20.894531 C 27.757812 20.800781 27.8125 20.707031 27.851562 20.597656 C 27.925781 20.375 27.980469 20.171875 28 19.929688 C 28.015625 19.726562 28.074219 19.523438 28.128906 19.339844 C 28.183594 19.152344 28.183594 18.949219 28.128906 18.765625 C 28.089844 18.671875 28.074219 18.671875 28.015625 18.726562 C 27.851562 18.929688 27.648438 19.078125 27.445312 19.246094 C 27.296875 19.355469 27.183594 19.488281 27.074219 19.652344 C 26.871094 19.949219 26.628906 20.226562 26.351562 20.449219 C 25.960938 20.765625 25.667969 21.152344 25.445312 21.578125 C 25.386719 21.726562 25.386719 21.761719 25.296875 21.78125 Z M 25.296875 21.78125 " fill-opacity="1" fill-rule="nonzero"/></g><path fill="#453421" d="M 27.777344 13.914062 C 27.90625 14.027344 27.960938 14.15625 27.886719 14.320312 C 27.867188 14.378906 27.867188 14.433594 27.851562 14.488281 C 27.796875 14.597656 27.8125 14.710938 27.851562 14.820312 C 27.90625 15.042969 28.015625 15.230469 28.183594 15.378906 C 28.222656 15.414062 28.257812 15.449219 28.292969 15.488281 C 28.441406 15.710938 28.648438 15.820312 28.886719 15.933594 C 29.089844 16.023438 29.164062 16.15625 29.144531 16.375 C 29.144531 16.449219 29.128906 16.523438 29.128906 16.617188 C 29.144531 16.820312 29.144531 17.023438 29.3125 17.191406 C 29.332031 17.210938 29.351562 17.226562 29.332031 17.246094 C 29.3125 17.285156 29.277344 17.246094 29.257812 17.246094 C 29.164062 17.171875 29.089844 17.078125 29.035156 16.96875 C 28.980469 16.820312 28.925781 16.691406 28.851562 16.542969 C 28.8125 16.46875 28.777344 16.414062 28.71875 16.375 C 28.628906 16.320312 28.574219 16.230469 28.480469 16.15625 C 28.441406 16.191406 28.460938 16.230469 28.460938 16.265625 C 28.5 16.488281 28.5 16.726562 28.441406 16.949219 C 28.40625 17.152344 28.386719 17.359375 28.441406 17.5625 C 28.460938 17.617188 28.460938 17.671875 28.441406 17.710938 C 28.441406 17.726562 28.425781 17.765625 28.386719 17.765625 C 28.351562 17.765625 28.332031 17.765625 28.3125 17.726562 C 28.292969 17.691406 28.277344 17.671875 28.277344 17.636719 C 28.203125 17.375 28.148438 17.117188 28.203125 16.859375 C 28.238281 16.597656 28.222656 16.339844 28.148438 16.097656 C 28.109375 15.96875 28.074219 15.859375 28.015625 15.746094 C 27.980469 15.636719 27.90625 15.542969 27.8125 15.46875 C 27.609375 15.304688 27.554688 15.082031 27.535156 14.839844 C 27.535156 14.746094 27.554688 14.65625 27.609375 14.5625 C 27.722656 14.394531 27.777344 14.210938 27.722656 14.027344 C 27.722656 14.007812 27.722656 13.988281 27.722656 13.96875 C 27.757812 13.933594 27.777344 13.933594 27.777344 13.914062 Z M 27.777344 13.914062 " fill-opacity="1" fill-rule="nonzero"/><path fill="#453421" d="M 21.167969 18.355469 C 21.148438 18.355469 21.148438 18.339844 21.148438 18.320312 C 21.167969 18.285156 21.167969 18.246094 21.1875 18.226562 C 21.277344 18.078125 21.390625 17.949219 21.539062 17.820312 C 21.667969 17.710938 21.777344 17.578125 21.890625 17.433594 C 22.054688 17.171875 22.222656 16.933594 22.445312 16.726562 C 22.480469 16.691406 22.539062 16.65625 22.574219 16.597656 C 22.742188 16.414062 22.945312 16.300781 23.167969 16.230469 C 23.242188 16.210938 23.332031 16.191406 23.40625 16.171875 C 23.757812 16.097656 24.019531 15.894531 24.242188 15.636719 C 24.351562 15.507812 24.425781 15.378906 24.535156 15.246094 C 24.554688 15.210938 24.574219 15.15625 24.628906 15.191406 C 24.667969 15.230469 24.628906 15.265625 24.609375 15.285156 C 24.390625 15.597656 24.128906 15.914062 23.871094 16.191406 C 23.777344 16.285156 23.683594 16.359375 23.59375 16.414062 C 23.371094 16.542969 23.148438 16.671875 22.90625 16.785156 C 22.722656 16.859375 22.554688 16.96875 22.390625 17.097656 C 22.316406 17.152344 22.261719 17.226562 22.1875 17.300781 C 22.074219 17.433594 21.964844 17.578125 21.851562 17.710938 C 21.742188 17.820312 21.648438 17.949219 21.519531 18.023438 C 21.410156 18.097656 21.335938 18.191406 21.261719 18.300781 C 21.203125 18.339844 21.203125 18.375 21.167969 18.355469 Z M 21.167969 18.355469 " fill-opacity="1" fill-rule="nonzero"/><path fill="#453421" d="M 24.40625 19.46875 C 24.371094 19.46875 24.371094 19.449219 24.371094 19.414062 C 24.390625 19.394531 24.40625 19.355469 24.425781 19.339844 C 24.703125 19.117188 24.925781 18.855469 25.167969 18.617188 C 25.257812 18.523438 25.371094 18.46875 25.460938 18.414062 C 25.554688 18.339844 25.648438 18.285156 25.722656 18.191406 C 25.886719 18.003906 26.074219 17.859375 26.277344 17.726562 C 26.519531 17.578125 26.738281 17.433594 26.960938 17.265625 C 27.089844 17.152344 27.222656 17.023438 27.3125 16.875 C 27.332031 16.859375 27.332031 16.839844 27.351562 16.839844 C 27.371094 16.820312 27.371094 16.800781 27.386719 16.820312 C 27.425781 16.820312 27.40625 16.859375 27.40625 16.875 C 27.40625 16.933594 27.371094 16.96875 27.351562 17.007812 C 27.222656 17.210938 27.074219 17.414062 26.886719 17.5625 C 26.738281 17.691406 26.609375 17.820312 26.5 17.96875 C 26.277344 18.246094 26 18.449219 25.648438 18.5625 C 25.425781 18.617188 25.277344 18.746094 25.109375 18.875 C 24.90625 19.023438 24.742188 19.246094 24.535156 19.394531 C 24.480469 19.429688 24.445312 19.449219 24.40625 19.46875 Z M 24.40625 19.46875 " fill-opacity="1" fill-rule="nonzero"/><path fill="#453421" d="M 31.257812 24.964844 C 31.21875 24.929688 31.21875 24.890625 31.21875 24.855469 C 31.238281 24.652344 31.273438 24.464844 31.292969 24.261719 C 31.292969 24.242188 31.3125 24.226562 31.3125 24.207031 C 31.3125 24.207031 31.332031 24.1875 31.332031 24.1875 C 31.347656 24.1875 31.347656 24.207031 31.347656 24.207031 C 31.347656 24.226562 31.347656 24.226562 31.347656 24.242188 C 31.332031 24.464844 31.292969 24.667969 31.273438 24.890625 C 31.292969 24.929688 31.292969 24.949219 31.257812 24.964844 Z M 31.257812 24.964844 " fill-opacity="1" fill-rule="nonzero"/><g fill="#453421" fill-opacity="1"><g transform="translate(4.36775, 31.507823)"><g><path d="M 2.1875 0.078125 C 2.375 0.078125 2.484375 0.0625 2.640625 0.03125 C 3.328125 -0.15625 3.84375 -0.671875 3.921875 -1.296875 C 4.0625 -2.3125 3.171875 -2.71875 2.515625 -3.015625 C 2.484375 -3.03125 2.4375 -3.0625 2.390625 -3.078125 C 1.6875 -3.40625 1.234375 -3.71875 1.25 -4.234375 C 1.28125 -5.4375 2.96875 -5.875 3.421875 -4.796875 L 3.625 -4.875 C 3.421875 -5.328125 2.859375 -5.703125 2.03125 -5.53125 C 1.359375 -5.40625 0.75 -4.921875 0.734375 -4.25 C 0.703125 -3.28125 1.6875 -2.828125 2.171875 -2.59375 C 2.21875 -2.578125 2.265625 -2.5625 2.3125 -2.53125 C 3.03125 -2.21875 3.515625 -1.640625 3.40625 -1.078125 C 3.1875 0.140625 1.59375 0.25 0.78125 -0.890625 L 0.625 -0.78125 C 1.0625 -0.140625 1.671875 0.078125 2.1875 0.078125 Z M 2.1875 0.078125 "/></g></g></g><g fill="#453421" fill-opacity="1"><g transform="translate(8.780285, 31.507823)"><g><path d="M 0.765625 0 L 4.078125 0 L 4.078125 -0.203125 L 1.296875 -0.203125 L 1.296875 -2.703125 L 3.390625 -2.703125 L 3.390625 -2.921875 L 1.296875 -2.921875 L 1.296875 -5.34375 L 3.90625 -5.34375 L 3.90625 -5.546875 L 0.765625 -5.546875 Z M 0.765625 0 "/></g></g></g><g fill="#453421" fill-opacity="1"><g transform="translate(13.479245, 31.507823)"><g><path d="M 0.765625 0 L 1.296875 0 L 1.296875 -2.6875 L 2.125 -2.6875 L 4.046875 0 L 4.625 0 L 2.703125 -2.6875 C 3.484375 -2.6875 4.203125 -3.3125 4.203125 -4.125 C 4.203125 -4.96875 3.484375 -5.546875 2.71875 -5.546875 L 0.765625 -5.546875 Z M 1.296875 -2.890625 L 1.296875 -5.34375 L 2.625 -5.34375 C 3.203125 -5.34375 3.6875 -4.71875 3.6875 -4.125 C 3.6875 -3.546875 3.203125 -2.890625 2.625 -2.890625 Z M 1.296875 -2.890625 "/></g></g></g><g fill="#453421" fill-opacity="1"><g transform="translate(18.7201, 31.507823)"><g><path d="M 0.765625 0 L 1.296875 0 L 1.296875 -2.6875 L 2.125 -2.6875 L 4.046875 0 L 4.625 0 L 2.703125 -2.6875 C 3.484375 -2.6875 4.203125 -3.3125 4.203125 -4.125 C 4.203125 -4.96875 3.484375 -5.546875 2.71875 -5.546875 L 0.765625 -5.546875 Z M 1.296875 -2.890625 L 1.296875 -5.34375 L 2.625 -5.34375 C 3.203125 -5.34375 3.6875 -4.71875 3.6875 -4.125 C 3.6875 -3.546875 3.203125 -2.890625 2.625 -2.890625 Z M 1.296875 -2.890625 "/></g></g></g><g fill="#453421" fill-opacity="1"><g transform="translate(23.960954, 31.507823)"><g><path d="M 0.765625 0 L 0.984375 0 L 1.4375 -1.421875 L 3.75 -1.421875 L 4.1875 0 L 4.734375 0 L 3.03125 -5.546875 L 2.46875 -5.546875 Z M 1.5 -1.625 L 2.59375 -5.1875 L 3.6875 -1.625 Z M 1.5 -1.625 "/></g></g></g><g fill="#453421" fill-opacity="1"><g transform="translate(29.32567, 31.507823)"><g><path d="M 0.765625 0 L 4.0625 0 L 4.0625 -0.203125 L 1.296875 -0.203125 L 1.296875 -5.546875 L 0.765625 -5.546875 Z M 0.765625 0 "/></g></g></g><g fill="#453421" fill-opacity="1"><g transform="translate(34.016895, 31.507823)"><g><path d="M 2.53125 0 L 3.078125 0 L 4.8125 -5.546875 L 4.59375 -5.546875 L 2.96875 -0.375 L 1.328125 -5.546875 L 0.765625 -5.546875 Z M 2.53125 0 "/></g></g></g><g fill="#453421" fill-opacity="1"><g transform="translate(39.451284, 31.507823)"><g><path d="M 0.765625 0 L 4.078125 0 L 4.078125 -0.203125 L 1.296875 -0.203125 L 1.296875 -2.703125 L 3.390625 -2.703125 L 3.390625 -2.921875 L 1.296875 -2.921875 L 1.296875 -5.34375 L 3.90625 -5.34375 L 3.90625 -5.546875 L 0.765625 -5.546875 Z M 0.765625 0 "/></g></g></g><g fill="#453421" fill-opacity="1"><g transform="translate(44.150245, 31.507823)"><g><path d="M 2.1875 0.078125 C 2.375 0.078125 2.484375 0.0625 2.640625 0.03125 C 3.328125 -0.15625 3.84375 -0.671875 3.921875 -1.296875 C 4.0625 -2.3125 3.171875 -2.71875 2.515625 -3.015625 C 2.484375 -3.03125 2.4375 -3.0625 2.390625 -3.078125 C 1.6875 -3.40625 1.234375 -3.71875 1.25 -4.234375 C 1.28125 -5.4375 2.96875 -5.875 3.421875 -4.796875 L 3.625 -4.875 C 3.421875 -5.328125 2.859375 -5.703125 2.03125 -5.53125 C 1.359375 -5.40625 0.75 -4.921875 0.734375 -4.25 C 0.703125 -3.28125 1.6875 -2.828125 2.171875 -2.59375 C 2.21875 -2.578125 2.265625 -2.5625 2.3125 -2.53125 C 3.03125 -2.21875 3.515625 -1.640625 3.40625 -1.078125 C 3.1875 0.140625 1.59375 0.25 0.78125 -0.890625 L 0.625 -0.78125 C 1.0625 -0.140625 1.671875 0.078125 2.1875 0.078125 Z M 2.1875 0.078125 "/></g></g></g><g fill="#453421" fill-opacity="1"><g transform="translate(17.492778, 35.09713)"><g><path d="M 0.671875 0.03125 C 1.03125 0.03125 1.234375 -0.140625 1.234375 -0.421875 C 1.234375 -0.71875 0.96875 -0.8125 0.6875 -0.875 C 0.515625 -0.9375 0.421875 -0.953125 0.421875 -1.046875 C 0.421875 -1.125 0.515625 -1.15625 0.609375 -1.15625 C 0.75 -1.15625 0.84375 -1.09375 0.859375 -0.984375 L 1.21875 -0.984375 C 1.203125 -1.28125 0.953125 -1.453125 0.609375 -1.453125 C 0.3125 -1.453125 0.0625 -1.328125 0.0625 -1.015625 C 0.0625 -0.765625 0.28125 -0.65625 0.53125 -0.578125 C 0.734375 -0.515625 0.875 -0.5 0.875 -0.390625 C 0.875 -0.3125 0.8125 -0.265625 0.671875 -0.265625 C 0.515625 -0.265625 0.390625 -0.3125 0.390625 -0.46875 L 0.03125 -0.46875 C 0.03125 -0.15625 0.3125 0.03125 0.671875 0.03125 Z M 0.671875 0.03125 "/></g></g></g><g fill="#453421" fill-opacity="1"><g transform="translate(20.359485, 35.09713)"><g><path d="M 0.453125 0 L 0.796875 0 L 0.796875 -1.125 L 1.21875 -1.125 L 1.21875 -1.421875 L 0.03125 -1.421875 L 0.03125 -1.125 L 0.453125 -1.125 Z M 0.453125 0 "/></g></g></g><g fill="#453421" fill-opacity="1"><g transform="translate(23.190531, 35.09713)"><g><path d="M 0.6875 0.03125 C 1.109375 0.03125 1.28125 -0.15625 1.28125 -0.515625 L 1.28125 -1.421875 L 0.921875 -1.421875 L 0.921875 -0.515625 C 0.921875 -0.328125 0.84375 -0.265625 0.6875 -0.265625 C 0.53125 -0.265625 0.4375 -0.328125 0.4375 -0.515625 L 0.4375 -1.421875 L 0.09375 -1.421875 L 0.09375 -0.515625 C 0.09375 -0.15625 0.25 0.03125 0.6875 0.03125 Z M 0.6875 0.03125 "/></g></g></g><g fill="#453421" fill-opacity="1"><g transform="translate(26.134502, 35.09713)"><g><path d="M 0.09375 0 L 0.75 0 C 1.140625 0 1.359375 -0.25 1.359375 -0.703125 C 1.359375 -1.171875 1.125 -1.421875 0.71875 -1.421875 L 0.09375 -1.421875 Z M 0.453125 -0.296875 L 0.453125 -1.125 L 0.6875 -1.125 C 0.90625 -1.125 1 -0.96875 1 -0.703125 C 1 -0.453125 0.90625 -0.296875 0.6875 -0.296875 Z M 0.453125 -0.296875 "/></g></g></g><g fill="#453421" fill-opacity="1"><g transform="translate(29.116115, 35.09713)"><g><path d="M 0.09375 0 L 0.453125 0 L 0.453125 -1.421875 L 0.09375 -1.421875 Z M 0.09375 0 "/></g></g></g><g fill="#453421" fill-opacity="1"><g transform="translate(31.253759, 35.09713)"><g><path d="M 0.734375 0.03125 C 1.1875 0.03125 1.4375 -0.28125 1.4375 -0.703125 C 1.4375 -1.140625 1.1875 -1.453125 0.734375 -1.453125 C 0.296875 -1.453125 0.046875 -1.140625 0.046875 -0.703125 C 0.046875 -0.28125 0.296875 0.03125 0.734375 0.03125 Z M 0.734375 -0.265625 C 0.484375 -0.265625 0.390625 -0.46875 0.390625 -0.703125 C 0.390625 -0.953125 0.484375 -1.15625 0.734375 -1.15625 C 1 -1.15625 1.09375 -0.953125 1.09375 -0.703125 C 1.09375 -0.46875 1 -0.265625 0.734375 -0.265625 Z M 0.734375 -0.265625 "/></g></g></g><g fill="#453421" fill-opacity="1"><g transform="translate(34.320561, 35.09713)"><g><path d="M 0.671875 0.03125 C 1.03125 0.03125 1.234375 -0.140625 1.234375 -0.421875 C 1.234375 -0.71875 0.96875 -0.8125 0.6875 -0.875 C 0.515625 -0.9375 0.421875 -0.953125 0.421875 -1.046875 C 0.421875 -1.125 0.515625 -1.15625 0.609375 -1.15625 C 0.75 -1.15625 0.84375 -1.09375 0.859375 -0.984375 L 1.21875 -0.984375 C 1.203125 -1.28125 0.953125 -1.453125 0.609375 -1.453125 C 0.3125 -1.453125 0.0625 -1.328125 0.0625 -1.015625 C 0.0625 -0.765625 0.28125 -0.65625 0.53125 -0.578125 C 0.734375 -0.515625 0.875 -0.5 0.875 -0.390625 C 0.875 -0.3125 0.8125 -0.265625 0.671875 -0.265625 C 0.515625 -0.265625 0.390625 -0.3125 0.390625 -0.46875 L 0.03125 -0.46875 C 0.03125 -0.15625 0.3125 0.03125 0.671875 0.03125 Z M 0.671875 0.03125 "/></g></g></g></svg>